<mxfile host="Electron" modified="2023-05-27T11:47:53.735Z" agent="Mozilla/5.0 (Macintosh; Intel Mac OS X 10_15_7) AppleWebKit/537.36 (KHTML, like Gecko) draw.io/21.2.8 Chrome/112.0.5615.165 Electron/24.2.0 Safari/537.36" etag="3VD3toBb3vlBI63Xggub" version="21.2.8" type="device">
  <diagram name="Pagina-1" id="KvbNKHjDhUp8sFp4bMgD">
    <mxGraphModel dx="1754" dy="980" grid="1" gridSize="10" guides="1" tooltips="1" connect="1" arrows="1" fold="1" page="1" pageScale="1" pageWidth="1169" pageHeight="827" math="0" shadow="0">
      <root>
        <mxCell id="0" />
        <mxCell id="1" parent="0" />
        <mxCell id="_Ao-tl0WqERz2bmiDif8-1" value="" style="shape=image;verticalLabelPosition=bottom;labelBackgroundColor=default;verticalAlign=top;aspect=fixed;imageAspect=0;image=data:image/svg+xml,PHN2ZyB4bWxuczp4bGluaz0iaHR0cDovL3d3dy53My5vcmcvMTk5OS94bGluayIgeG1sbnM9Imh0dHA6Ly93d3cudzMub3JnLzIwMDAvc3ZnIiB6b29tQW5kUGFuPSJtYWduaWZ5IiB3aWR0aD0iMjIyNSIgdmlld0JveD0iMTYgNiAyMjI1IDc0NCIgdmVyc2lvbj0iMS4xIiBzdHlsZT0id2lkdGg6MjI1OHB4O2hlaWdodDo3NTlweDtiYWNrZ3JvdW5kOiNGRkZGRkY7IiBwcmVzZXJ2ZUFzcGVjdFJhdGlvPSJub25lIiBoZWlnaHQ9Ijc0NCI+PGRlZnM+PGZpbHRlciB5PSItMSIgeD0iLTEiIHdpZHRoPSIzMDAlIiBpZD0iZno0Mm1ydzVqcHlpaCIgaGVpZ2h0PSIzMDAlIj48ZmVHYXVzc2lhbkJsdXIgc3RkRGV2aWF0aW9uPSIyLjAiIHJlc3VsdD0iYmx1ck91dCIvPjxmZUNvbG9yTWF0cml4IHZhbHVlcz0iMCAwIDAgMCAwIDAgMCAwIDAgMCAwIDAgMCAwIDAgMCAwIDAgLjQgMCIgdHlwZT0ibWF0cml4IiByZXN1bHQ9ImJsdXJPdXQyIiBpbj0iYmx1ck91dCIvPjxmZU9mZnNldCByZXN1bHQ9ImJsdXJPdXQzIiBpbj0iYmx1ck91dDIiIGR5PSI0LjAiIGR4PSI0LjAiLz48ZmVCbGVuZCBtb2RlPSJub3JtYWwiIGluMj0iYmx1ck91dDMiIGluPSJTb3VyY2VHcmFwaGljIi8+PC9maWx0ZXI+PC9kZWZzPjxnPjxnIGlkPSJjbHVzdGVyX2l0Ij48cG9seWdvbiBzdHlsZT0ic3Ryb2tlOiMwMDAwMDA7c3Ryb2tlLXdpZHRoOjEuNTsiIHBvaW50cz0iMTYsNiwzNSw2LDQyLDI4LjI5NjksMTg5NywyOC4yOTY5LDE4OTcsNzUwLDE2LDc1MCwxNiw2IiBmaWx0ZXI9InVybCgjZno0Mm1ydzVqcHlpaCkiIGZpbGw9Im5vbmUiLz48bGluZSB5Mj0iMjguMjk2OSIgeTE9IjI4LjI5NjkiIHgyPSI0MiIgeDE9IjE2IiBzdHlsZT0ic3Ryb2tlOiMwMDAwMDA7c3Ryb2tlLXdpZHRoOjEuNTsiLz48dGV4dCB5PSIyMC45OTUxIiB4PSIyMCIgdGV4dExlbmd0aD0iMTMiIGxlbmd0aEFkanVzdD0ic3BhY2luZyIgZm9udC13ZWlnaHQ9ImJvbGQiIGZvbnQtc2l6ZT0iMTQiIGZvbnQtZmFtaWx5PSJzYW5zLXNlcmlmIiBmaWxsPSIjMDAwMDAwIj5pdDwvdGV4dD48L2c+PGcgaWQ9ImNsdXN0ZXJfcG9saW1pIj48cG9seWdvbiBzdHlsZT0ic3Ryb2tlOiMwMDAwMDA7c3Ryb2tlLXdpZHRoOjEuNTsiIHBvaW50cz0iNDAsNDksOTYsNDksMTAzLDcxLjI5NjksMTg3Myw3MS4yOTY5LDE4NzMsNzI2LDQwLDcyNiw0MCw0OSIgZmlsdGVyPSJ1cmwoI2Z6NDJtcnc1anB5aWgpIiBmaWxsPSJub25lIi8+PGxpbmUgeTI9IjcxLjI5NjkiIHkxPSI3MS4yOTY5IiB4Mj0iMTAzIiB4MT0iNDAiIHN0eWxlPSJzdHJva2U6IzAwMDAwMDtzdHJva2Utd2lkdGg6MS41OyIvPjx0ZXh0IHk9IjYzLjk5NTEiIHg9IjQ0IiB0ZXh0TGVuZ3RoPSI1MCIgbGVuZ3RoQWRqdXN0PSJzcGFjaW5nIiBmb250LXdlaWdodD0iYm9sZCIgZm9udC1zaXplPSIxNCIgZm9udC1mYW1pbHk9InNhbnMtc2VyaWYiIGZpbGw9IiMwMDAwMDAiPnBvbGltaTwvdGV4dD48L2c+PGcgaWQ9ImNsdXN0ZXJfaW5nc3ciPjxwb2x5Z29uIHN0eWxlPSJzdHJva2U6IzAwMDAwMDtzdHJva2Utd2lkdGg6MS41OyIgcG9pbnRzPSI2NCw5MiwxMTcsOTIsMTI0LDExNC4yOTY5LDE4NDksMTE0LjI5NjksMTg0OSw3MDIsNjQsNzAyLDY0LDkyIiBmaWx0ZXI9InVybCgjZno0Mm1ydzVqcHlpaCkiIGZpbGw9Im5vbmUiLz48bGluZSB5Mj0iMTE0LjI5NjkiIHkxPSIxMTQuMjk2OSIgeDI9IjEyNCIgeDE9IjY0IiBzdHlsZT0ic3Ryb2tlOiMwMDAwMDA7c3Ryb2tlLXdpZHRoOjEuNTsiLz48dGV4dCB5PSIxMDYuOTk1MSIgeD0iNjgiIHRleHRMZW5ndGg9IjQ3IiBsZW5ndGhBZGp1c3Q9InNwYWNpbmciIGZvbnQtd2VpZ2h0PSJib2xkIiBmb250LXNpemU9IjE0IiBmb250LWZhbWlseT0ic2Fucy1zZXJpZiIgZmlsbD0iIzAwMDAwMCI+aW5nc3c8L3RleHQ+PC9nPjxnIGlkPSJjbHVzdGVyX1NlcnZlciI+PHBvbHlnb24gc3R5bGU9InN0cm9rZTojMDAwMDAwO3N0cm9rZS13aWR0aDoxLjU7IiBwb2ludHM9Ijg4LDMwNiwxNDUsMzA2LDE1MiwzMjguMjk2OSwxODI1LDMyOC4yOTY5LDE4MjUsNjc4LDg4LDY3OCw4OCwzMDYiIGZpbHRlcj0idXJsKCNmejQybXJ3NWpweWloKSIgZmlsbD0ibm9uZSIvPjxsaW5lIHkyPSIzMjguMjk2OSIgeTE9IjMyOC4yOTY5IiB4Mj0iMTUyIiB4MT0iODgiIHN0eWxlPSJzdHJva2U6IzAwMDAwMDtzdHJva2Utd2lkdGg6MS41OyIvPjx0ZXh0IHk9IjMyMC45OTUxIiB4PSI5MiIgdGV4dExlbmd0aD0iNTEiIGxlbmd0aEFkanVzdD0ic3BhY2luZyIgZm9udC13ZWlnaHQ9ImJvbGQiIGZvbnQtc2l6ZT0iMTQiIGZvbnQtZmFtaWx5PSJzYW5zLXNlcmlmIiBmaWxsPSIjMDAwMDAwIj5TZXJ2ZXI8L3RleHQ+PC9nPjxnIGlkPSJjbHVzdGVyX01vZGVsIj48cG9seWdvbiBzdHlsZT0ic3Ryb2tlOiMwMDAwMDA7c3Ryb2tlLXdpZHRoOjEuNTsiIHBvaW50cz0iNDIxLDM0OSw0NzUsMzQ5LDQ4MiwzNzEuMjk2OSwxODAxLDM3MS4yOTY5LDE4MDEsNjU0LDQyMSw2NTQsNDIxLDM0OSIgZmlsdGVyPSJ1cmwoI2Z6NDJtcnc1anB5aWgpIiBmaWxsPSJub25lIi8+PGxpbmUgeTI9IjM3MS4yOTY5IiB5MT0iMzcxLjI5NjkiIHgyPSI0ODIiIHgxPSI0MjEiIHN0eWxlPSJzdHJva2U6IzAwMDAwMDtzdHJva2Utd2lkdGg6MS41OyIvPjx0ZXh0IHk9IjM2My45OTUxIiB4PSI0MjUiIHRleHRMZW5ndGg9IjQ4IiBsZW5ndGhBZGp1c3Q9InNwYWNpbmciIGZvbnQtd2VpZ2h0PSJib2xkIiBmb250LXNpemU9IjE0IiBmb250LWZhbWlseT0ic2Fucy1zZXJpZiIgZmlsbD0iIzAwMDAwMCI+TW9kZWw8L3RleHQ+PC9nPjxnIGlkPSJjbHVzdGVyX0NvbnRyb2xsZXIiPjxwb2x5Z29uIHN0eWxlPSJzdHJva2U6IzAwMDAwMDtzdHJva2Utd2lkdGg6MS41OyIgcG9pbnRzPSIxMTIsMzk4LDE5OSwzOTgsMjA2LDQyMC4yOTY5LDM5Nyw0MjAuMjk2OSwzOTcsNDk3LDExMiw0OTcsMTEyLDM5OCIgZmlsdGVyPSJ1cmwoI2Z6NDJtcnc1anB5aWgpIiBmaWxsPSJub25lIi8+PGxpbmUgeTI9IjQyMC4yOTY5IiB5MT0iNDIwLjI5NjkiIHgyPSIyMDYiIHgxPSIxMTIiIHN0eWxlPSJzdHJva2U6IzAwMDAwMDtzdHJva2Utd2lkdGg6MS41OyIvPjx0ZXh0IHk9IjQxMi45OTUxIiB4PSIxMTYiIHRleHRMZW5ndGg9IjgxIiBsZW5ndGhBZGp1c3Q9InNwYWNpbmciIGZvbnQtd2VpZ2h0PSJib2xkIiBmb250LXNpemU9IjE0IiBmb250LWZhbWlseT0ic2Fucy1zZXJpZiIgZmlsbD0iIzAwMDAwMCI+Q29udHJvbGxlcjwvdGV4dD48L2c+PGcgaWQ9ImNsdXN0ZXJfQ29tbW9uIj48cG9seWdvbiBzdHlsZT0ic3Ryb2tlOiMwMDAwMDA7c3Ryb2tlLXdpZHRoOjEuNTsiIHBvaW50cz0iMTkwLDEzNSwyNjYsMTM1LDI3MywxNTcuMjk2OSwxNjk0LDE1Ny4yOTY5LDE2OTQsMjM0LDE5MCwyMzQsMTkwLDEzNSIgZmlsdGVyPSJ1cmwoI2Z6NDJtcnc1anB5aWgpIiBmaWxsPSJub25lIi8+PGxpbmUgeTI9IjE1Ny4yOTY5IiB5MT0iMTU3LjI5NjkiIHgyPSIyNzMiIHgxPSIxOTAiIHN0eWxlPSJzdHJva2U6IzAwMDAwMDtzdHJva2Utd2lkdGg6MS41OyIvPjx0ZXh0IHk9IjE0OS45OTUxIiB4PSIxOTQiIHRleHRMZW5ndGg9IjcwIiBsZW5ndGhBZGp1c3Q9InNwYWNpbmciIGZvbnQtd2VpZ2h0PSJib2xkIiBmb250LXNpemU9IjE0IiBmb250LWZhbWlseT0ic2Fucy1zZXJpZiIgZmlsbD0iIzAwMDAwMCI+Q29tbW9uPC90ZXh0PjwvZz48ZyBpZD0iY2x1c3Rlcl9qYXZhIj48cG9seWdvbiBzdHlsZT0ic3Ryb2tlOiMwMDAwMDA7c3Ryb2tlLXdpZHRoOjEuNTsiIHBvaW50cz0iMTkyMSw0OSwxOTYxLDQ5LDE5NjgsNzEuMjk2OSwyMjQxLDcxLjI5NjksMjI0MSwyODIsMTkyMSwyODIsMTkyMSw0OSIgZmlsdGVyPSJ1cmwoI2Z6NDJtcnc1anB5aWgpIiBmaWxsPSJub25lIi8+PGxpbmUgeTI9IjcxLjI5NjkiIHkxPSI3MS4yOTY5IiB4Mj0iMTk2OCIgeDE9IjE5MjEiIHN0eWxlPSJzdHJva2U6IzAwMDAwMDtzdHJva2Utd2lkdGg6MS41OyIvPjx0ZXh0IHk9IjYzLjk5NTEiIHg9IjE5MjUiIHRleHRMZW5ndGg9IjM0IiBsZW5ndGhBZGp1c3Q9InNwYWNpbmciIGZvbnQtd2VpZ2h0PSJib2xkIiBmb250LXNpemU9IjE0IiBmb250LWZhbWlseT0ic2Fucy1zZXJpZiIgZmlsbD0iIzAwMDAwMCI+amF2YTwvdGV4dD48L2c+PGcgaWQ9ImNsdXN0ZXJfcm1pIj48cG9seWdvbiBzdHlsZT0ic3Ryb2tlOiMwMDAwMDA7c3Ryb2tlLXdpZHRoOjEuNTsiIHBvaW50cz0iMTk0NSw5MiwxOTc4LDkyLDE5ODUsMTE0LjI5NjksMjIxNywxMTQuMjk2OSwyMjE3LDI1OCwxOTQ1LDI1OCwxOTQ1LDkyIiBmaWx0ZXI9InVybCgjZno0Mm1ydzVqcHlpaCkiIGZpbGw9Im5vbmUiLz48bGluZSB5Mj0iMTE0LjI5NjkiIHkxPSIxMTQuMjk2OSIgeDI9IjE5ODUiIHgxPSIxOTQ1IiBzdHlsZT0ic3Ryb2tlOiMwMDAwMDA7c3Ryb2tlLXdpZHRoOjEuNTsiLz48dGV4dCB5PSIxMDYuOTk1MSIgeD0iMTk0OSIgdGV4dExlbmd0aD0iMjciIGxlbmd0aEFkanVzdD0ic3BhY2luZyIgZm9udC13ZWlnaHQ9ImJvbGQiIGZvbnQtc2l6ZT0iMTQiIGZvbnQtZmFtaWx5PSJzYW5zLXNlcmlmIiBmaWxsPSIjMDAwMDAwIj5ybWk8L3RleHQ+PC9nPjxnIGlkPSJjbHVzdGVyX3NlcnZlciI+PHBvbHlnb24gc3R5bGU9InN0cm9rZTojMDAwMDAwO3N0cm9rZS13aWR0aDoxLjU7IiBwb2ludHM9IjE5NjksMTM1LDIwMjUsMTM1LDIwMzIsMTU3LjI5NjksMjE5MywxNTcuMjk2OSwyMTkzLDIzNCwxOTY5LDIzNCwxOTY5LDEzNSIgZmlsdGVyPSJ1cmwoI2Z6NDJtcnc1anB5aWgpIiBmaWxsPSJub25lIi8+PGxpbmUgeTI9IjE1Ny4yOTY5IiB5MT0iMTU3LjI5NjkiIHgyPSIyMDMyIiB4MT0iMTk2OSIgc3R5bGU9InN0cm9rZTojMDAwMDAwO3N0cm9rZS13aWR0aDoxLjU7Ii8+PHRleHQgeT0iMTQ5Ljk5NTEiIHg9IjE5NzMiIHRleHRMZW5ndGg9IjUwIiBsZW5ndGhBZGp1c3Q9InNwYWNpbmciIGZvbnQtd2VpZ2h0PSJib2xkIiBmb250LXNpemU9IjE0IiBmb250LWZhbWlseT0ic2Fucy1zZXJpZiIgZmlsbD0iIzAwMDAwMCI+c2VydmVyPC90ZXh0PjwvZz48ZyBpZD0iZWxlbV9QZXJzb25hbEdvYWxDYXJkIj48cmVjdCB5PSI0MzMiIHg9IjExODQiIHdpZHRoPSIxNTgiIHN0eWxlPSJzdHJva2U6I0E4MDAzNjtzdHJva2Utd2lkdGg6MS4wOyIgaWQ9IlBlcnNvbmFsR29hbENhcmQiIGhlaWdodD0iNDgiIGZpbHRlcj0idXJsKCNmejQybXJ3NWpweWloKSIgZmlsbD0iI0ZFRkVDRSIvPjxlbGxpcHNlIHN0eWxlPSJzdHJva2U6I0E4MDAzNjtzdHJva2Utd2lkdGg6MS4wOyIgcnk9IjExIiByeD0iMTEiIGZpbGw9IiNBREQxQjIiIGN5PSI0NDkiIGN4PSIxMTk5Ii8+PHBhdGggZmlsbD0iIzAwMDAwMCIgZD0iTTEyMDEuMzQzOCw0NDQuNjcxOSBDMTIwMC40MDYzLDQ0NC4yMzQ0IDExOTkuODEyNSw0NDQuMDkzOCAxMTk4LjkzNzUsNDQ0LjA5MzggQzExOTYuMzEyNSw0NDQuMDkzOCAxMTk0LjMxMjUsNDQ2LjE3MTkgMTE5NC4zMTI1LDQ0OC44OTA2IEwxMTk0LjMxMjUsNDUwLjAxNTYgQzExOTQuMzEyNSw0NTIuNTkzOCAxMTk2LjQyMTksNDU0LjQ4NDQgMTE5OS4zMTI1LDQ1NC40ODQ0IEMxMjAwLjUzMTMsNDU0LjQ4NDQgMTIwMS42ODc1LDQ1NC4xODc1IDEyMDIuNDM3NSw0NTMuNjQwNiBDMTIwMy4wMTU2LDQ1My4yMzQ0IDEyMDMuMzQzOCw0NTIuNzgxMyAxMjAzLjM0MzgsNDUyLjM5MDYgQzEyMDMuMzQzOCw0NTEuOTM3NSAxMjAyLjk1MzEsNDUxLjU0NjkgMTIwMi40ODQ0LDQ1MS41NDY5IEMxMjAyLjI2NTYsNDUxLjU0NjkgMTIwMi4wNjI1LDQ1MS42MjUgMTIwMS44NzUsNDUxLjgxMjUgQzEyMDEuNDIxOSw0NTIuMjk2OSAxMjAxLjQyMTksNDUyLjI5NjkgMTIwMS4yMzQ0LDQ1Mi4zOTA2IEMxMjAwLjgxMjUsNDUyLjY1NjMgMTIwMC4xMjUsNDUyLjc4MTMgMTE5OS4zNTk0LDQ1Mi43ODEzIEMxMTk3LjMxMjUsNDUyLjc4MTMgMTE5Ni4wMTU2LDQ1MS42ODc1IDExOTYuMDE1Niw0NDkuOTg0NCBMMTE5Ni4wMTU2LDQ0OC44OTA2IEMxMTk2LjAxNTYsNDQ3LjEwOTQgMTE5Ny4yNjU2LDQ0NS43OTY5IDExOTksNDQ1Ljc5NjkgQzExOTkuNTc4MSw0NDUuNzk2OSAxMjAwLjE4NzUsNDQ1Ljk1MzEgMTIwMC42NTYzLDQ0Ni4yMDMxIEMxMjAxLjE0MDYsNDQ2LjQ4NDQgMTIwMS4zMTI1LDQ0Ni43MDMxIDEyMDEuNDA2Myw0NDcuMTA5NCBDMTIwMS40Njg4LDQ0Ny41MTU2IDEyMDEuNSw0NDcuNjQwNiAxMjAxLjY0MDYsNDQ3Ljc2NTYgQzEyMDEuNzgxMyw0NDcuOTA2MyAxMjAyLjAxNTYsNDQ4LjAxNTYgMTIwMi4yMzQ0LDQ0OC4wMTU2IEMxMjAyLjUsNDQ4LjAxNTYgMTIwMi43NjU2LDQ0Ny44NzUgMTIwMi45Mzc1LDQ0Ny42NTYzIEMxMjAzLjA0NjksNDQ3LjUgMTIwMy4wNzgxLDQ0Ny4zMTI1IDEyMDMuMDc4MSw0NDYuODkwNiBMMTIwMy4wNzgxLDQ0NS40Njg4IEMxMjAzLjA3ODEsNDQ1LjAzMTMgMTIwMy4wNjI1LDQ0NC45MDYzIDEyMDIuOTY4OCw0NDQuNzUgQzEyMDIuODEyNSw0NDQuNDg0NCAxMjAyLjUzMTMsNDQ0LjM0MzggMTIwMi4yMzQ0LDQ0NC4zNDM4IEMxMjAxLjkzNzUsNDQ0LjM0MzggMTIwMS43MzQ0LDQ0NC40Mzc1IDEyMDEuNTE1Niw0NDQuNzUgTDEyMDEuMzQzOCw0NDQuNjcxOSBaIi8+PHRleHQgeT0iNDUzLjg0NjciIHg9IjEyMTMiIHRleHRMZW5ndGg9IjEyNiIgbGVuZ3RoQWRqdXN0PSJzcGFjaW5nIiBmb250LXNpemU9IjE0IiBmb250LWZhbWlseT0ic2Fucy1zZXJpZiIgZmlsbD0iIzAwMDAwMCI+UGVyc29uYWxHb2FsQ2FyZDwvdGV4dD48bGluZSB5Mj0iNDY1IiB5MT0iNDY1IiB4Mj0iMTM0MSIgeDE9IjExODUiIHN0eWxlPSJzdHJva2U6I0E4MDAzNjtzdHJva2Utd2lkdGg6MS4wOyIvPjxsaW5lIHkyPSI0NzMiIHkxPSI0NzMiIHgyPSIxMzQxIiB4MT0iMTE4NSIgc3R5bGU9InN0cm9rZTojQTgwMDM2O3N0cm9rZS13aWR0aDoxLjA7Ii8+PC9nPjxnIGlkPSJlbGVtX09iamVjdENhcmQiPjxyZWN0IHk9IjQzMyIgeD0iNDM3IiB3aWR0aD0iMTE0IiBzdHlsZT0ic3Ryb2tlOiNBODAwMzY7c3Ryb2tlLXdpZHRoOjEuMDsiIGlkPSJPYmplY3RDYXJkIiBoZWlnaHQ9IjQ4IiBmaWx0ZXI9InVybCgjZno0Mm1ydzVqcHlpaCkiIGZpbGw9IiNGRUZFQ0UiLz48ZWxsaXBzZSBzdHlsZT0ic3Ryb2tlOiNBODAwMzY7c3Ryb2tlLXdpZHRoOjEuMDsiIHJ5PSIxMSIgcng9IjExIiBmaWxsPSIjQUREMUIyIiBjeT0iNDQ5IiBjeD0iNDUyIi8+PHBhdGggZmlsbD0iIzAwMDAwMCIgZD0iTTQ1NC4zNDM4LDQ0NC42NzE5IEM0NTMuNDA2Myw0NDQuMjM0NCA0NTIuODEyNSw0NDQuMDkzOCA0NTEuOTM3NSw0NDQuMDkzOCBDNDQ5LjMxMjUsNDQ0LjA5MzggNDQ3LjMxMjUsNDQ2LjE3MTkgNDQ3LjMxMjUsNDQ4Ljg5MDYgTDQ0Ny4zMTI1LDQ1MC4wMTU2IEM0NDcuMzEyNSw0NTIuNTkzOCA0NDkuNDIxOSw0NTQuNDg0NCA0NTIuMzEyNSw0NTQuNDg0NCBDNDUzLjUzMTMsNDU0LjQ4NDQgNDU0LjY4NzUsNDU0LjE4NzUgNDU1LjQzNzUsNDUzLjY0MDYgQzQ1Ni4wMTU2LDQ1My4yMzQ0IDQ1Ni4zNDM4LDQ1Mi43ODEzIDQ1Ni4zNDM4LDQ1Mi4zOTA2IEM0NTYuMzQzOCw0NTEuOTM3NSA0NTUuOTUzMSw0NTEuNTQ2OSA0NTUuNDg0NCw0NTEuNTQ2OSBDNDU1LjI2NTYsNDUxLjU0NjkgNDU1LjA2MjUsNDUxLjYyNSA0NTQuODc1LDQ1MS44MTI1IEM0NTQuNDIxOSw0NTIuMjk2OSA0NTQuNDIxOSw0NTIuMjk2OSA0NTQuMjM0NCw0NTIuMzkwNiBDNDUzLjgxMjUsNDUyLjY1NjMgNDUzLjEyNSw0NTIuNzgxMyA0NTIuMzU5NCw0NTIuNzgxMyBDNDUwLjMxMjUsNDUyLjc4MTMgNDQ5LjAxNTYsNDUxLjY4NzUgNDQ5LjAxNTYsNDQ5Ljk4NDQgTDQ0OS4wMTU2LDQ0OC44OTA2IEM0NDkuMDE1Niw0NDcuMTA5NCA0NTAuMjY1Niw0NDUuNzk2OSA0NTIsNDQ1Ljc5NjkgQzQ1Mi41NzgxLDQ0NS43OTY5IDQ1My4xODc1LDQ0NS45NTMxIDQ1My42NTYzLDQ0Ni4yMDMxIEM0NTQuMTQwNiw0NDYuNDg0NCA0NTQuMzEyNSw0NDYuNzAzMSA0NTQuNDA2Myw0NDcuMTA5NCBDNDU0LjQ2ODgsNDQ3LjUxNTYgNDU0LjUsNDQ3LjY0MDYgNDU0LjY0MDYsNDQ3Ljc2NTYgQzQ1NC43ODEzLDQ0Ny45MDYzIDQ1NS4wMTU2LDQ0OC4wMTU2IDQ1NS4yMzQ0LDQ0OC4wMTU2IEM0NTUuNSw0NDguMDE1NiA0NTUuNzY1Niw0NDcuODc1IDQ1NS45Mzc1LDQ0Ny42NTYzIEM0NTYuMDQ2OSw0NDcuNSA0NTYuMDc4MSw0NDcuMzEyNSA0NTYuMDc4MSw0NDYuODkwNiBMNDU2LjA3ODEsNDQ1LjQ2ODggQzQ1Ni4wNzgxLDQ0NS4wMzEzIDQ1Ni4wNjI1LDQ0NC45MDYzIDQ1NS45Njg4LDQ0NC43NSBDNDU1LjgxMjUsNDQ0LjQ4NDQgNDU1LjUzMTMsNDQ0LjM0MzggNDU1LjIzNDQsNDQ0LjM0MzggQzQ1NC45Mzc1LDQ0NC4zNDM4IDQ1NC43MzQ0LDQ0NC40Mzc1IDQ1NC41MTU2LDQ0NC43NSBMNDU0LjM0MzgsNDQ0LjY3MTkgWiIvPjx0ZXh0IHk9IjQ1My44NDY3IiB4PSI0NjYiIHRleHRMZW5ndGg9IjgyIiBsZW5ndGhBZGp1c3Q9InNwYWNpbmciIGZvbnQtc2l6ZT0iMTQiIGZvbnQtZmFtaWx5PSJzYW5zLXNlcmlmIiBmaWxsPSIjMDAwMDAwIj5PYmplY3RDYXJkPC90ZXh0PjxsaW5lIHkyPSI0NjUiIHkxPSI0NjUiIHgyPSI1NTAiIHgxPSI0MzgiIHN0eWxlPSJzdHJva2U6I0E4MDAzNjtzdHJva2Utd2lkdGg6MS4wOyIvPjxsaW5lIHkyPSI0NzMiIHkxPSI0NzMiIHgyPSI1NTAiIHgxPSI0MzgiIHN0eWxlPSJzdHJva2U6I0E4MDAzNjtzdHJva2Utd2lkdGg6MS4wOyIvPjwvZz48ZyBpZD0iZWxlbV9TY29yZUNhcmQiPjxyZWN0IHk9IjQzMyIgeD0iMTA0MyIgd2lkdGg9IjEwNiIgc3R5bGU9InN0cm9rZTojQTgwMDM2O3N0cm9rZS13aWR0aDoxLjA7IiBpZD0iU2NvcmVDYXJkIiBoZWlnaHQ9IjQ4IiBmaWx0ZXI9InVybCgjZno0Mm1ydzVqcHlpaCkiIGZpbGw9IiNGRUZFQ0UiLz48ZWxsaXBzZSBzdHlsZT0ic3Ryb2tlOiNBODAwMzY7c3Ryb2tlLXdpZHRoOjEuMDsiIHJ5PSIxMSIgcng9IjExIiBmaWxsPSIjQUREMUIyIiBjeT0iNDQ5IiBjeD0iMTA1OCIvPjxwYXRoIGZpbGw9IiMwMDAwMDAiIGQ9Ik0xMDYwLjM0MzgsNDQ0LjY3MTkgQzEwNTkuNDA2Myw0NDQuMjM0NCAxMDU4LjgxMjUsNDQ0LjA5MzggMTA1Ny45Mzc1LDQ0NC4wOTM4IEMxMDU1LjMxMjUsNDQ0LjA5MzggMTA1My4zMTI1LDQ0Ni4xNzE5IDEwNTMuMzEyNSw0NDguODkwNiBMMTA1My4zMTI1LDQ1MC4wMTU2IEMxMDUzLjMxMjUsNDUyLjU5MzggMTA1NS40MjE5LDQ1NC40ODQ0IDEwNTguMzEyNSw0NTQuNDg0NCBDMTA1OS41MzEzLDQ1NC40ODQ0IDEwNjAuNjg3NSw0NTQuMTg3NSAxMDYxLjQzNzUsNDUzLjY0MDYgQzEwNjIuMDE1Niw0NTMuMjM0NCAxMDYyLjM0MzgsNDUyLjc4MTMgMTA2Mi4zNDM4LDQ1Mi4zOTA2IEMxMDYyLjM0MzgsNDUxLjkzNzUgMTA2MS45NTMxLDQ1MS41NDY5IDEwNjEuNDg0NCw0NTEuNTQ2OSBDMTA2MS4yNjU2LDQ1MS41NDY5IDEwNjEuMDYyNSw0NTEuNjI1IDEwNjAuODc1LDQ1MS44MTI1IEMxMDYwLjQyMTksNDUyLjI5NjkgMTA2MC40MjE5LDQ1Mi4yOTY5IDEwNjAuMjM0NCw0NTIuMzkwNiBDMTA1OS44MTI1LDQ1Mi42NTYzIDEwNTkuMTI1LDQ1Mi43ODEzIDEwNTguMzU5NCw0NTIuNzgxMyBDMTA1Ni4zMTI1LDQ1Mi43ODEzIDEwNTUuMDE1Niw0NTEuNjg3NSAxMDU1LjAxNTYsNDQ5Ljk4NDQgTDEwNTUuMDE1Niw0NDguODkwNiBDMTA1NS4wMTU2LDQ0Ny4xMDk0IDEwNTYuMjY1Niw0NDUuNzk2OSAxMDU4LDQ0NS43OTY5IEMxMDU4LjU3ODEsNDQ1Ljc5NjkgMTA1OS4xODc1LDQ0NS45NTMxIDEwNTkuNjU2Myw0NDYuMjAzMSBDMTA2MC4xNDA2LDQ0Ni40ODQ0IDEwNjAuMzEyNSw0NDYuNzAzMSAxMDYwLjQwNjMsNDQ3LjEwOTQgQzEwNjAuNDY4OCw0NDcuNTE1NiAxMDYwLjUsNDQ3LjY0MDYgMTA2MC42NDA2LDQ0Ny43NjU2IEMxMDYwLjc4MTMsNDQ3LjkwNjMgMTA2MS4wMTU2LDQ0OC4wMTU2IDEwNjEuMjM0NCw0NDguMDE1NiBDMTA2MS41LDQ0OC4wMTU2IDEwNjEuNzY1Niw0NDcuODc1IDEwNjEuOTM3NSw0NDcuNjU2MyBDMTA2Mi4wNDY5LDQ0Ny41IDEwNjIuMDc4MSw0NDcuMzEyNSAxMDYyLjA3ODEsNDQ2Ljg5MDYgTDEwNjIuMDc4MSw0NDUuNDY4OCBDMTA2Mi4wNzgxLDQ0NS4wMzEzIDEwNjIuMDYyNSw0NDQuOTA2MyAxMDYxLjk2ODgsNDQ0Ljc1IEMxMDYxLjgxMjUsNDQ0LjQ4NDQgMTA2MS41MzEzLDQ0NC4zNDM4IDEwNjEuMjM0NCw0NDQuMzQzOCBDMTA2MC45Mzc1LDQ0NC4zNDM4IDEwNjAuNzM0NCw0NDQuNDM3NSAxMDYwLjUxNTYsNDQ0Ljc1IEwxMDYwLjM0MzgsNDQ0LjY3MTkgWiIvPjx0ZXh0IHk9IjQ1My44NDY3IiB4PSIxMDcyIiB0ZXh0TGVuZ3RoPSI3NCIgbGVuZ3RoQWRqdXN0PSJzcGFjaW5nIiBmb250LXNpemU9IjE0IiBmb250LWZhbWlseT0ic2Fucy1zZXJpZiIgZmlsbD0iIzAwMDAwMCI+U2NvcmVDYXJkPC90ZXh0PjxsaW5lIHkyPSI0NjUiIHkxPSI0NjUiIHgyPSIxMTQ4IiB4MT0iMTA0NCIgc3R5bGU9InN0cm9rZTojQTgwMDM2O3N0cm9rZS13aWR0aDoxLjA7Ii8+PGxpbmUgeTI9IjQ3MyIgeTE9IjQ3MyIgeDI9IjExNDgiIHgxPSIxMDQ0IiBzdHlsZT0ic3Ryb2tlOiNBODAwMzY7c3Ryb2tlLXdpZHRoOjEuMDsiLz48L2c+PGcgaWQ9ImVsZW1fQm9hcmQiPjxyZWN0IHk9IjQzMyIgeD0iOTM0IiB3aWR0aD0iNzQiIHN0eWxlPSJzdHJva2U6I0E4MDAzNjtzdHJva2Utd2lkdGg6MS4wOyIgaWQ9IkJvYXJkIiBoZWlnaHQ9IjQ4IiBmaWx0ZXI9InVybCgjZno0Mm1ydzVqcHlpaCkiIGZpbGw9IiNGRUZFQ0UiLz48ZWxsaXBzZSBzdHlsZT0ic3Ryb2tlOiNBODAwMzY7c3Ryb2tlLXdpZHRoOjEuMDsiIHJ5PSIxMSIgcng9IjExIiBmaWxsPSIjQUREMUIyIiBjeT0iNDQ5IiBjeD0iOTQ5Ii8+PHBhdGggZmlsbD0iIzAwMDAwMCIgZD0iTTk1MS4zNDM4LDQ0NC42NzE5IEM5NTAuNDA2Myw0NDQuMjM0NCA5NDkuODEyNSw0NDQuMDkzOCA5NDguOTM3NSw0NDQuMDkzOCBDOTQ2LjMxMjUsNDQ0LjA5MzggOTQ0LjMxMjUsNDQ2LjE3MTkgOTQ0LjMxMjUsNDQ4Ljg5MDYgTDk0NC4zMTI1LDQ1MC4wMTU2IEM5NDQuMzEyNSw0NTIuNTkzOCA5NDYuNDIxOSw0NTQuNDg0NCA5NDkuMzEyNSw0NTQuNDg0NCBDOTUwLjUzMTMsNDU0LjQ4NDQgOTUxLjY4NzUsNDU0LjE4NzUgOTUyLjQzNzUsNDUzLjY0MDYgQzk1My4wMTU2LDQ1My4yMzQ0IDk1My4zNDM4LDQ1Mi43ODEzIDk1My4zNDM4LDQ1Mi4zOTA2IEM5NTMuMzQzOCw0NTEuOTM3NSA5NTIuOTUzMSw0NTEuNTQ2OSA5NTIuNDg0NCw0NTEuNTQ2OSBDOTUyLjI2NTYsNDUxLjU0NjkgOTUyLjA2MjUsNDUxLjYyNSA5NTEuODc1LDQ1MS44MTI1IEM5NTEuNDIxOSw0NTIuMjk2OSA5NTEuNDIxOSw0NTIuMjk2OSA5NTEuMjM0NCw0NTIuMzkwNiBDOTUwLjgxMjUsNDUyLjY1NjMgOTUwLjEyNSw0NTIuNzgxMyA5NDkuMzU5NCw0NTIuNzgxMyBDOTQ3LjMxMjUsNDUyLjc4MTMgOTQ2LjAxNTYsNDUxLjY4NzUgOTQ2LjAxNTYsNDQ5Ljk4NDQgTDk0Ni4wMTU2LDQ0OC44OTA2IEM5NDYuMDE1Niw0NDcuMTA5NCA5NDcuMjY1Niw0NDUuNzk2OSA5NDksNDQ1Ljc5NjkgQzk0OS41NzgxLDQ0NS43OTY5IDk1MC4xODc1LDQ0NS45NTMxIDk1MC42NTYzLDQ0Ni4yMDMxIEM5NTEuMTQwNiw0NDYuNDg0NCA5NTEuMzEyNSw0NDYuNzAzMSA5NTEuNDA2Myw0NDcuMTA5NCBDOTUxLjQ2ODgsNDQ3LjUxNTYgOTUxLjUsNDQ3LjY0MDYgOTUxLjY0MDYsNDQ3Ljc2NTYgQzk1MS43ODEzLDQ0Ny45MDYzIDk1Mi4wMTU2LDQ0OC4wMTU2IDk1Mi4yMzQ0LDQ0OC4wMTU2IEM5NTIuNSw0NDguMDE1NiA5NTIuNzY1Niw0NDcuODc1IDk1Mi45Mzc1LDQ0Ny42NTYzIEM5NTMuMDQ2OSw0NDcuNSA5NTMuMDc4MSw0NDcuMzEyNSA5NTMuMDc4MSw0NDYuODkwNiBMOTUzLjA3ODEsNDQ1LjQ2ODggQzk1My4wNzgxLDQ0NS4wMzEzIDk1My4wNjI1LDQ0NC45MDYzIDk1Mi45Njg4LDQ0NC43NSBDOTUyLjgxMjUsNDQ0LjQ4NDQgOTUyLjUzMTMsNDQ0LjM0MzggOTUyLjIzNDQsNDQ0LjM0MzggQzk1MS45Mzc1LDQ0NC4zNDM4IDk1MS43MzQ0LDQ0NC40Mzc1IDk1MS41MTU2LDQ0NC43NSBMOTUxLjM0MzgsNDQ0LjY3MTkgWiIvPjx0ZXh0IHk9IjQ1My44NDY3IiB4PSI5NjMiIHRleHRMZW5ndGg9IjQyIiBsZW5ndGhBZGp1c3Q9InNwYWNpbmciIGZvbnQtc2l6ZT0iMTQiIGZvbnQtZmFtaWx5PSJzYW5zLXNlcmlmIiBmaWxsPSIjMDAwMDAwIj5Cb2FyZDwvdGV4dD48bGluZSB5Mj0iNDY1IiB5MT0iNDY1IiB4Mj0iMTAwNyIgeDE9IjkzNSIgc3R5bGU9InN0cm9rZTojQTgwMDM2O3N0cm9rZS13aWR0aDoxLjA7Ii8+PGxpbmUgeTI9IjQ3MyIgeTE9IjQ3MyIgeDI9IjEwMDciIHgxPSI5MzUiIHN0eWxlPSJzdHJva2U6I0E4MDAzNjtzdHJva2Utd2lkdGg6MS4wOyIvPjwvZz48ZyBpZD0iZWxlbV9Cb2FyZFNwYWNlIj48cmVjdCB5PSI0MzMiIHg9IjE0ODIiIHdpZHRoPSIxMTgiIHN0eWxlPSJzdHJva2U6I0E4MDAzNjtzdHJva2Utd2lkdGg6MS4wOyIgaWQ9IkJvYXJkU3BhY2UiIGhlaWdodD0iNDgiIGZpbHRlcj0idXJsKCNmejQybXJ3NWpweWloKSIgZmlsbD0iI0ZFRkVDRSIvPjxlbGxpcHNlIHN0eWxlPSJzdHJva2U6I0E4MDAzNjtzdHJva2Utd2lkdGg6MS4wOyIgcnk9IjExIiByeD0iMTEiIGZpbGw9IiNBREQxQjIiIGN5PSI0NDkiIGN4PSIxNDk3Ii8+PHBhdGggZmlsbD0iIzAwMDAwMCIgZD0iTTE0OTkuMzQzOCw0NDQuNjcxOSBDMTQ5OC40MDYzLDQ0NC4yMzQ0IDE0OTcuODEyNSw0NDQuMDkzOCAxNDk2LjkzNzUsNDQ0LjA5MzggQzE0OTQuMzEyNSw0NDQuMDkzOCAxNDkyLjMxMjUsNDQ2LjE3MTkgMTQ5Mi4zMTI1LDQ0OC44OTA2IEwxNDkyLjMxMjUsNDUwLjAxNTYgQzE0OTIuMzEyNSw0NTIuNTkzOCAxNDk0LjQyMTksNDU0LjQ4NDQgMTQ5Ny4zMTI1LDQ1NC40ODQ0IEMxNDk4LjUzMTMsNDU0LjQ4NDQgMTQ5OS42ODc1LDQ1NC4xODc1IDE1MDAuNDM3NSw0NTMuNjQwNiBDMTUwMS4wMTU2LDQ1My4yMzQ0IDE1MDEuMzQzOCw0NTIuNzgxMyAxNTAxLjM0MzgsNDUyLjM5MDYgQzE1MDEuMzQzOCw0NTEuOTM3NSAxNTAwLjk1MzEsNDUxLjU0NjkgMTUwMC40ODQ0LDQ1MS41NDY5IEMxNTAwLjI2NTYsNDUxLjU0NjkgMTUwMC4wNjI1LDQ1MS42MjUgMTQ5OS44NzUsNDUxLjgxMjUgQzE0OTkuNDIxOSw0NTIuMjk2OSAxNDk5LjQyMTksNDUyLjI5NjkgMTQ5OS4yMzQ0LDQ1Mi4zOTA2IEMxNDk4LjgxMjUsNDUyLjY1NjMgMTQ5OC4xMjUsNDUyLjc4MTMgMTQ5Ny4zNTk0LDQ1Mi43ODEzIEMxNDk1LjMxMjUsNDUyLjc4MTMgMTQ5NC4wMTU2LDQ1MS42ODc1IDE0OTQuMDE1Niw0NDkuOTg0NCBMMTQ5NC4wMTU2LDQ0OC44OTA2IEMxNDk0LjAxNTYsNDQ3LjEwOTQgMTQ5NS4yNjU2LDQ0NS43OTY5IDE0OTcsNDQ1Ljc5NjkgQzE0OTcuNTc4MSw0NDUuNzk2OSAxNDk4LjE4NzUsNDQ1Ljk1MzEgMTQ5OC42NTYzLDQ0Ni4yMDMxIEMxNDk5LjE0MDYsNDQ2LjQ4NDQgMTQ5OS4zMTI1LDQ0Ni43MDMxIDE0OTkuNDA2Myw0NDcuMTA5NCBDMTQ5OS40Njg4LDQ0Ny41MTU2IDE0OTkuNSw0NDcuNjQwNiAxNDk5LjY0MDYsNDQ3Ljc2NTYgQzE0OTkuNzgxMyw0NDcuOTA2MyAxNTAwLjAxNTYsNDQ4LjAxNTYgMTUwMC4yMzQ0LDQ0OC4wMTU2IEMxNTAwLjUsNDQ4LjAxNTYgMTUwMC43NjU2LDQ0Ny44NzUgMTUwMC45Mzc1LDQ0Ny42NTYzIEMxNTAxLjA0NjksNDQ3LjUgMTUwMS4wNzgxLDQ0Ny4zMTI1IDE1MDEuMDc4MSw0NDYuODkwNiBMMTUwMS4wNzgxLDQ0NS40Njg4IEMxNTAxLjA3ODEsNDQ1LjAzMTMgMTUwMS4wNjI1LDQ0NC45MDYzIDE1MDAuOTY4OCw0NDQuNzUgQzE1MDAuODEyNSw0NDQuNDg0NCAxNTAwLjUzMTMsNDQ0LjM0MzggMTUwMC4yMzQ0LDQ0NC4zNDM4IEMxNDk5LjkzNzUsNDQ0LjM0MzggMTQ5OS43MzQ0LDQ0NC40Mzc1IDE0OTkuNTE1Niw0NDQuNzUgTDE0OTkuMzQzOCw0NDQuNjcxOSBaIi8+PHRleHQgeT0iNDUzLjg0NjciIHg9IjE1MTEiIHRleHRMZW5ndGg9Ijg2IiBsZW5ndGhBZGp1c3Q9InNwYWNpbmciIGZvbnQtc2l6ZT0iMTQiIGZvbnQtZmFtaWx5PSJzYW5zLXNlcmlmIiBmaWxsPSIjMDAwMDAwIj5Cb2FyZFNwYWNlPC90ZXh0PjxsaW5lIHkyPSI0NjUiIHkxPSI0NjUiIHgyPSIxNTk5IiB4MT0iMTQ4MyIgc3R5bGU9InN0cm9rZTojQTgwMDM2O3N0cm9rZS13aWR0aDoxLjA7Ii8+PGxpbmUgeTI9IjQ3MyIgeTE9IjQ3MyIgeDI9IjE1OTkiIHgxPSIxNDgzIiBzdHlsZT0ic3Ryb2tlOiNBODAwMzY7c3Ryb2tlLXdpZHRoOjEuMDsiLz48L2c+PGcgaWQ9ImVsZW1fU2NvcmVib2FyZCI+PHJlY3QgeT0iNDMzIiB4PSI3ODMuNSIgd2lkdGg9IjExNSIgc3R5bGU9InN0cm9rZTojQTgwMDM2O3N0cm9rZS13aWR0aDoxLjA7IiBpZD0iU2NvcmVib2FyZCIgaGVpZ2h0PSI0OCIgZmlsdGVyPSJ1cmwoI2Z6NDJtcnc1anB5aWgpIiBmaWxsPSIjRkVGRUNFIi8+PGVsbGlwc2Ugc3R5bGU9InN0cm9rZTojQTgwMDM2O3N0cm9rZS13aWR0aDoxLjA7IiByeT0iMTEiIHJ4PSIxMSIgZmlsbD0iI0FERDFCMiIgY3k9IjQ0OSIgY3g9Ijc5OC41Ii8+PHBhdGggZmlsbD0iIzAwMDAwMCIgZD0iTTgwMC44NDM4LDQ0NC42NzE5IEM3OTkuOTA2Myw0NDQuMjM0NCA3OTkuMzEyNSw0NDQuMDkzOCA3OTguNDM3NSw0NDQuMDkzOCBDNzk1LjgxMjUsNDQ0LjA5MzggNzkzLjgxMjUsNDQ2LjE3MTkgNzkzLjgxMjUsNDQ4Ljg5MDYgTDc5My44MTI1LDQ1MC4wMTU2IEM3OTMuODEyNSw0NTIuNTkzOCA3OTUuOTIxOSw0NTQuNDg0NCA3OTguODEyNSw0NTQuNDg0NCBDODAwLjAzMTMsNDU0LjQ4NDQgODAxLjE4NzUsNDU0LjE4NzUgODAxLjkzNzUsNDUzLjY0MDYgQzgwMi41MTU2LDQ1My4yMzQ0IDgwMi44NDM4LDQ1Mi43ODEzIDgwMi44NDM4LDQ1Mi4zOTA2IEM4MDIuODQzOCw0NTEuOTM3NSA4MDIuNDUzMSw0NTEuNTQ2OSA4MDEuOTg0NCw0NTEuNTQ2OSBDODAxLjc2NTYsNDUxLjU0NjkgODAxLjU2MjUsNDUxLjYyNSA4MDEuMzc1LDQ1MS44MTI1IEM4MDAuOTIxOSw0NTIuMjk2OSA4MDAuOTIxOSw0NTIuMjk2OSA4MDAuNzM0NCw0NTIuMzkwNiBDODAwLjMxMjUsNDUyLjY1NjMgNzk5LjYyNSw0NTIuNzgxMyA3OTguODU5NCw0NTIuNzgxMyBDNzk2LjgxMjUsNDUyLjc4MTMgNzk1LjUxNTYsNDUxLjY4NzUgNzk1LjUxNTYsNDQ5Ljk4NDQgTDc5NS41MTU2LDQ0OC44OTA2IEM3OTUuNTE1Niw0NDcuMTA5NCA3OTYuNzY1Niw0NDUuNzk2OSA3OTguNSw0NDUuNzk2OSBDNzk5LjA3ODEsNDQ1Ljc5NjkgNzk5LjY4NzUsNDQ1Ljk1MzEgODAwLjE1NjMsNDQ2LjIwMzEgQzgwMC42NDA2LDQ0Ni40ODQ0IDgwMC44MTI1LDQ0Ni43MDMxIDgwMC45MDYzLDQ0Ny4xMDk0IEM4MDAuOTY4OCw0NDcuNTE1NiA4MDEsNDQ3LjY0MDYgODAxLjE0MDYsNDQ3Ljc2NTYgQzgwMS4yODEzLDQ0Ny45MDYzIDgwMS41MTU2LDQ0OC4wMTU2IDgwMS43MzQ0LDQ0OC4wMTU2IEM4MDIsNDQ4LjAxNTYgODAyLjI2NTYsNDQ3Ljg3NSA4MDIuNDM3NSw0NDcuNjU2MyBDODAyLjU0NjksNDQ3LjUgODAyLjU3ODEsNDQ3LjMxMjUgODAyLjU3ODEsNDQ2Ljg5MDYgTDgwMi41NzgxLDQ0NS40Njg4IEM4MDIuNTc4MSw0NDUuMDMxMyA4MDIuNTYyNSw0NDQuOTA2MyA4MDIuNDY4OCw0NDQuNzUgQzgwMi4zMTI1LDQ0NC40ODQ0IDgwMi4wMzEzLDQ0NC4zNDM4IDgwMS43MzQ0LDQ0NC4zNDM4IEM4MDEuNDM3NSw0NDQuMzQzOCA4MDEuMjM0NCw0NDQuNDM3NSA4MDEuMDE1Niw0NDQuNzUgTDgwMC44NDM4LDQ0NC42NzE5IFoiLz48dGV4dCB5PSI0NTMuODQ2NyIgeD0iODEyLjUiIHRleHRMZW5ndGg9IjgzIiBsZW5ndGhBZGp1c3Q9InNwYWNpbmciIGZvbnQtc2l6ZT0iMTQiIGZvbnQtZmFtaWx5PSJzYW5zLXNlcmlmIiBmaWxsPSIjMDAwMDAwIj5TY29yZWJvYXJkPC90ZXh0PjxsaW5lIHkyPSI0NjUiIHkxPSI0NjUiIHgyPSI4OTcuNSIgeDE9Ijc4NC41IiBzdHlsZT0ic3Ryb2tlOiNBODAwMzY7c3Ryb2tlLXdpZHRoOjEuMDsiLz48bGluZSB5Mj0iNDczIiB5MT0iNDczIiB4Mj0iODk3LjUiIHgxPSI3ODQuNSIgc3R5bGU9InN0cm9rZTojQTgwMDM2O3N0cm9rZS13aWR0aDoxLjA7Ii8+PC9nPjxnIGlkPSJlbGVtX0NvbW1vbkdvYWxDYXJkIj48cmVjdCB5PSI0MzMiIHg9IjU4NiIgd2lkdGg9IjE2MiIgc3R5bGU9InN0cm9rZTojQTgwMDM2O3N0cm9rZS13aWR0aDoxLjA7IiBpZD0iQ29tbW9uR29hbENhcmQiIGhlaWdodD0iNDgiIGZpbHRlcj0idXJsKCNmejQybXJ3NWpweWloKSIgZmlsbD0iI0ZFRkVDRSIvPjxlbGxpcHNlIHN0eWxlPSJzdHJva2U6I0E4MDAzNjtzdHJva2Utd2lkdGg6MS4wOyIgcnk9IjExIiByeD0iMTEiIGZpbGw9IiNBREQxQjIiIGN5PSI0NDkiIGN4PSI2MDEiLz48cGF0aCBmaWxsPSIjMDAwMDAwIiBkPSJNNjAzLjM0MzgsNDQ0LjY3MTkgQzYwMi40MDYzLDQ0NC4yMzQ0IDYwMS44MTI1LDQ0NC4wOTM4IDYwMC45Mzc1LDQ0NC4wOTM4IEM1OTguMzEyNSw0NDQuMDkzOCA1OTYuMzEyNSw0NDYuMTcxOSA1OTYuMzEyNSw0NDguODkwNiBMNTk2LjMxMjUsNDUwLjAxNTYgQzU5Ni4zMTI1LDQ1Mi41OTM4IDU5OC40MjE5LDQ1NC40ODQ0IDYwMS4zMTI1LDQ1NC40ODQ0IEM2MDIuNTMxMyw0NTQuNDg0NCA2MDMuNjg3NSw0NTQuMTg3NSA2MDQuNDM3NSw0NTMuNjQwNiBDNjA1LjAxNTYsNDUzLjIzNDQgNjA1LjM0MzgsNDUyLjc4MTMgNjA1LjM0MzgsNDUyLjM5MDYgQzYwNS4zNDM4LDQ1MS45Mzc1IDYwNC45NTMxLDQ1MS41NDY5IDYwNC40ODQ0LDQ1MS41NDY5IEM2MDQuMjY1Niw0NTEuNTQ2OSA2MDQuMDYyNSw0NTEuNjI1IDYwMy44NzUsNDUxLjgxMjUgQzYwMy40MjE5LDQ1Mi4yOTY5IDYwMy40MjE5LDQ1Mi4yOTY5IDYwMy4yMzQ0LDQ1Mi4zOTA2IEM2MDIuODEyNSw0NTIuNjU2MyA2MDIuMTI1LDQ1Mi43ODEzIDYwMS4zNTk0LDQ1Mi43ODEzIEM1OTkuMzEyNSw0NTIuNzgxMyA1OTguMDE1Niw0NTEuNjg3NSA1OTguMDE1Niw0NDkuOTg0NCBMNTk4LjAxNTYsNDQ4Ljg5MDYgQzU5OC4wMTU2LDQ0Ny4xMDk0IDU5OS4yNjU2LDQ0NS43OTY5IDYwMSw0NDUuNzk2OSBDNjAxLjU3ODEsNDQ1Ljc5NjkgNjAyLjE4NzUsNDQ1Ljk1MzEgNjAyLjY1NjMsNDQ2LjIwMzEgQzYwMy4xNDA2LDQ0Ni40ODQ0IDYwMy4zMTI1LDQ0Ni43MDMxIDYwMy40MDYzLDQ0Ny4xMDk0IEM2MDMuNDY4OCw0NDcuNTE1NiA2MDMuNSw0NDcuNjQwNiA2MDMuNjQwNiw0NDcuNzY1NiBDNjAzLjc4MTMsNDQ3LjkwNjMgNjA0LjAxNTYsNDQ4LjAxNTYgNjA0LjIzNDQsNDQ4LjAxNTYgQzYwNC41LDQ0OC4wMTU2IDYwNC43NjU2LDQ0Ny44NzUgNjA0LjkzNzUsNDQ3LjY1NjMgQzYwNS4wNDY5LDQ0Ny41IDYwNS4wNzgxLDQ0Ny4zMTI1IDYwNS4wNzgxLDQ0Ni44OTA2IEw2MDUuMDc4MSw0NDUuNDY4OCBDNjA1LjA3ODEsNDQ1LjAzMTMgNjA1LjA2MjUsNDQ0LjkwNjMgNjA0Ljk2ODgsNDQ0Ljc1IEM2MDQuODEyNSw0NDQuNDg0NCA2MDQuNTMxMyw0NDQuMzQzOCA2MDQuMjM0NCw0NDQuMzQzOCBDNjAzLjkzNzUsNDQ0LjM0MzggNjAzLjczNDQsNDQ0LjQzNzUgNjAzLjUxNTYsNDQ0Ljc1IEw2MDMuMzQzOCw0NDQuNjcxOSBaIi8+PHRleHQgeT0iNDUzLjg0NjciIHg9IjYxNSIgdGV4dExlbmd0aD0iMTMwIiBsZW5ndGhBZGp1c3Q9InNwYWNpbmciIGZvbnQtc2l6ZT0iMTQiIGZvbnQtZmFtaWx5PSJzYW5zLXNlcmlmIiBmaWxsPSIjMDAwMDAwIj5Db21tb25Hb2FsQ2FyZDwvdGV4dD48bGluZSB5Mj0iNDY1IiB5MT0iNDY1IiB4Mj0iNzQ3IiB4MT0iNTg3IiBzdHlsZT0ic3Ryb2tlOiNBODAwMzY7c3Ryb2tlLXdpZHRoOjEuMDsiLz48bGluZSB5Mj0iNDczIiB5MT0iNDczIiB4Mj0iNzQ3IiB4MT0iNTg3IiBzdHlsZT0ic3Ryb2tlOiNBODAwMzY7c3Ryb2tlLXdpZHRoOjEuMDsiLz48L2c+PGcgaWQ9ImVsZW1fRW5kR2FtZUNhcmQiPjxyZWN0IHk9IjU5MCIgeD0iMTAyOSIgd2lkdGg9IjEzNCIgc3R5bGU9InN0cm9rZTojQTgwMDM2O3N0cm9rZS13aWR0aDoxLjA7IiBpZD0iRW5kR2FtZUNhcmQiIGhlaWdodD0iNDgiIGZpbHRlcj0idXJsKCNmejQybXJ3NWpweWloKSIgZmlsbD0iI0ZFRkVDRSIvPjxlbGxpcHNlIHN0eWxlPSJzdHJva2U6I0E4MDAzNjtzdHJva2Utd2lkdGg6MS4wOyIgcnk9IjExIiByeD0iMTEiIGZpbGw9IiNBREQxQjIiIGN5PSI2MDYiIGN4PSIxMDQ0Ii8+PHBhdGggZmlsbD0iIzAwMDAwMCIgZD0iTTEwNDYuMzQzOCw2MDEuNjcxOSBDMTA0NS40MDYzLDYwMS4yMzQ0IDEwNDQuODEyNSw2MDEuMDkzOCAxMDQzLjkzNzUsNjAxLjA5MzggQzEwNDEuMzEyNSw2MDEuMDkzOCAxMDM5LjMxMjUsNjAzLjE3MTkgMTAzOS4zMTI1LDYwNS44OTA2IEwxMDM5LjMxMjUsNjA3LjAxNTYgQzEwMzkuMzEyNSw2MDkuNTkzOCAxMDQxLjQyMTksNjExLjQ4NDQgMTA0NC4zMTI1LDYxMS40ODQ0IEMxMDQ1LjUzMTMsNjExLjQ4NDQgMTA0Ni42ODc1LDYxMS4xODc1IDEwNDcuNDM3NSw2MTAuNjQwNiBDMTA0OC4wMTU2LDYxMC4yMzQ0IDEwNDguMzQzOCw2MDkuNzgxMyAxMDQ4LjM0MzgsNjA5LjM5MDYgQzEwNDguMzQzOCw2MDguOTM3NSAxMDQ3Ljk1MzEsNjA4LjU0NjkgMTA0Ny40ODQ0LDYwOC41NDY5IEMxMDQ3LjI2NTYsNjA4LjU0NjkgMTA0Ny4wNjI1LDYwOC42MjUgMTA0Ni44NzUsNjA4LjgxMjUgQzEwNDYuNDIxOSw2MDkuMjk2OSAxMDQ2LjQyMTksNjA5LjI5NjkgMTA0Ni4yMzQ0LDYwOS4zOTA2IEMxMDQ1LjgxMjUsNjA5LjY1NjMgMTA0NS4xMjUsNjA5Ljc4MTMgMTA0NC4zNTk0LDYwOS43ODEzIEMxMDQyLjMxMjUsNjA5Ljc4MTMgMTA0MS4wMTU2LDYwOC42ODc1IDEwNDEuMDE1Niw2MDYuOTg0NCBMMTA0MS4wMTU2LDYwNS44OTA2IEMxMDQxLjAxNTYsNjA0LjEwOTQgMTA0Mi4yNjU2LDYwMi43OTY5IDEwNDQsNjAyLjc5NjkgQzEwNDQuNTc4MSw2MDIuNzk2OSAxMDQ1LjE4NzUsNjAyLjk1MzEgMTA0NS42NTYzLDYwMy4yMDMxIEMxMDQ2LjE0MDYsNjAzLjQ4NDQgMTA0Ni4zMTI1LDYwMy43MDMxIDEwNDYuNDA2Myw2MDQuMTA5NCBDMTA0Ni40Njg4LDYwNC41MTU2IDEwNDYuNSw2MDQuNjQwNiAxMDQ2LjY0MDYsNjA0Ljc2NTYgQzEwNDYuNzgxMyw2MDQuOTA2MyAxMDQ3LjAxNTYsNjA1LjAxNTYgMTA0Ny4yMzQ0LDYwNS4wMTU2IEMxMDQ3LjUsNjA1LjAxNTYgMTA0Ny43NjU2LDYwNC44NzUgMTA0Ny45Mzc1LDYwNC42NTYzIEMxMDQ4LjA0NjksNjA0LjUgMTA0OC4wNzgxLDYwNC4zMTI1IDEwNDguMDc4MSw2MDMuODkwNiBMMTA0OC4wNzgxLDYwMi40Njg4IEMxMDQ4LjA3ODEsNjAyLjAzMTMgMTA0OC4wNjI1LDYwMS45MDYzIDEwNDcuOTY4OCw2MDEuNzUgQzEwNDcuODEyNSw2MDEuNDg0NCAxMDQ3LjUzMTMsNjAxLjM0MzggMTA0Ny4yMzQ0LDYwMS4zNDM4IEMxMDQ2LjkzNzUsNjAxLjM0MzggMTA0Ni43MzQ0LDYwMS40Mzc1IDEwNDYuNTE1Niw2MDEuNzUgTDEwNDYuMzQzOCw2MDEuNjcxOSBaIi8+PHRleHQgeT0iNjEwLjg0NjciIHg9IjEwNTgiIHRleHRMZW5ndGg9IjEwMiIgbGVuZ3RoQWRqdXN0PSJzcGFjaW5nIiBmb250LXNpemU9IjE0IiBmb250LWZhbWlseT0ic2Fucy1zZXJpZiIgZmlsbD0iIzAwMDAwMCI+RW5kR2FtZUNhcmQ8L3RleHQ+PGxpbmUgeTI9IjYyMiIgeTE9IjYyMiIgeDI9IjExNjIiIHgxPSIxMDMwIiBzdHlsZT0ic3Ryb2tlOiNBODAwMzY7c3Ryb2tlLXdpZHRoOjEuMDsiLz48bGluZSB5Mj0iNjMwIiB5MT0iNjMwIiB4Mj0iMTE2MiIgeDE9IjEwMzAiIHN0eWxlPSJzdHJva2U6I0E4MDAzNjtzdHJva2Utd2lkdGg6MS4wOyIvPjwvZz48ZyBpZD0iZWxlbV9TaGVsZiI+PHJlY3QgeT0iNDMzIiB4PSIxMzc3LjUiIHdpZHRoPSI2OSIgc3R5bGU9InN0cm9rZTojQTgwMDM2O3N0cm9rZS13aWR0aDoxLjA7IiBpZD0iU2hlbGYiIGhlaWdodD0iNDgiIGZpbHRlcj0idXJsKCNmejQybXJ3NWpweWloKSIgZmlsbD0iI0ZFRkVDRSIvPjxlbGxpcHNlIHN0eWxlPSJzdHJva2U6I0E4MDAzNjtzdHJva2Utd2lkdGg6MS4wOyIgcnk9IjExIiByeD0iMTEiIGZpbGw9IiNBREQxQjIiIGN5PSI0NDkiIGN4PSIxMzkyLjUiLz48cGF0aCBmaWxsPSIjMDAwMDAwIiBkPSJNMTM5NC44NDM4LDQ0NC42NzE5IEMxMzkzLjkwNjMsNDQ0LjIzNDQgMTM5My4zMTI1LDQ0NC4wOTM4IDEzOTIuNDM3NSw0NDQuMDkzOCBDMTM4OS44MTI1LDQ0NC4wOTM4IDEzODcuODEyNSw0NDYuMTcxOSAxMzg3LjgxMjUsNDQ4Ljg5MDYgTDEzODcuODEyNSw0NTAuMDE1NiBDMTM4Ny44MTI1LDQ1Mi41OTM4IDEzODkuOTIxOSw0NTQuNDg0NCAxMzkyLjgxMjUsNDU0LjQ4NDQgQzEzOTQuMDMxMyw0NTQuNDg0NCAxMzk1LjE4NzUsNDU0LjE4NzUgMTM5NS45Mzc1LDQ1My42NDA2IEMxMzk2LjUxNTYsNDUzLjIzNDQgMTM5Ni44NDM4LDQ1Mi43ODEzIDEzOTYuODQzOCw0NTIuMzkwNiBDMTM5Ni44NDM4LDQ1MS45Mzc1IDEzOTYuNDUzMSw0NTEuNTQ2OSAxMzk1Ljk4NDQsNDUxLjU0NjkgQzEzOTUuNzY1Niw0NTEuNTQ2OSAxMzk1LjU2MjUsNDUxLjYyNSAxMzk1LjM3NSw0NTEuODEyNSBDMTM5NC45MjE5LDQ1Mi4yOTY5IDEzOTQuOTIxOSw0NTIuMjk2OSAxMzk0LjczNDQsNDUyLjM5MDYgQzEzOTQuMzEyNSw0NTIuNjU2MyAxMzkzLjYyNSw0NTIuNzgxMyAxMzkyLjg1OTQsNDUyLjc4MTMgQzEzOTAuODEyNSw0NTIuNzgxMyAxMzg5LjUxNTYsNDUxLjY4NzUgMTM4OS41MTU2LDQ0OS45ODQ0IEwxMzg5LjUxNTYsNDQ4Ljg5MDYgQzEzODkuNTE1Niw0NDcuMTA5NCAxMzkwLjc2NTYsNDQ1Ljc5NjkgMTM5Mi41LDQ0NS43OTY5IEMxMzkzLjA3ODEsNDQ1Ljc5NjkgMTM5My42ODc1LDQ0NS45NTMxIDEzOTQuMTU2Myw0NDYuMjAzMSBDMTM5NC42NDA2LDQ0Ni40ODQ0IDEzOTQuODEyNSw0NDYuNzAzMSAxMzk0LjkwNjMsNDQ3LjEwOTQgQzEzOTQuOTY4OCw0NDcuNTE1NiAxMzk1LDQ0Ny42NDA2IDEzOTUuMTQwNiw0NDcuNzY1NiBDMTM5NS4yODEzLDQ0Ny45MDYzIDEzOTUuNTE1Niw0NDguMDE1NiAxMzk1LjczNDQsNDQ4LjAxNTYgQzEzOTYsNDQ4LjAxNTYgMTM5Ni4yNjU2LDQ0Ny44NzUgMTM5Ni40Mzc1LDQ0Ny42NTYzIEMxMzk2LjU0NjksNDQ3LjUgMTM5Ni41NzgxLDQ0Ny4zMTI1IDEzOTYuNTc4MSw0NDYuODkwNiBMMTM5Ni41NzgxLDQ0NS40Njg4IEMxMzk2LjU3ODEsNDQ1LjAzMTMgMTM5Ni41NjI1LDQ0NC45MDYzIDEzOTYuNDY4OCw0NDQuNzUgQzEzOTYuMzEyNSw0NDQuNDg0NCAxMzk2LjAzMTMsNDQ0LjM0MzggMTM5NS43MzQ0LDQ0NC4zNDM4IEMxMzk1LjQzNzUsNDQ0LjM0MzggMTM5NS4yMzQ0LDQ0NC40Mzc1IDEzOTUuMDE1Niw0NDQuNzUgTDEzOTQuODQzOCw0NDQuNjcxOSBaIi8+PHRleHQgeT0iNDUzLjg0NjciIHg9IjE0MDYuNSIgdGV4dExlbmd0aD0iMzciIGxlbmd0aEFkanVzdD0ic3BhY2luZyIgZm9udC1zaXplPSIxNCIgZm9udC1mYW1pbHk9InNhbnMtc2VyaWYiIGZpbGw9IiMwMDAwMDAiPlNoZWxmPC90ZXh0PjxsaW5lIHkyPSI0NjUiIHkxPSI0NjUiIHgyPSIxNDQ1LjUiIHgxPSIxMzc4LjUiIHN0eWxlPSJzdHJva2U6I0E4MDAzNjtzdHJva2Utd2lkdGg6MS4wOyIvPjxsaW5lIHkyPSI0NzMiIHkxPSI0NzMiIHgyPSIxNDQ1LjUiIHgxPSIxMzc4LjUiIHN0eWxlPSJzdHJva2U6I0E4MDAzNjtzdHJva2Utd2lkdGg6MS4wOyIvPjwvZz48ZyBpZD0iZWxlbV9PYmplY3RDYXJkVHlwZSI+PHJlY3QgeT0iMzg0IiB4PSIxNjM1IiB3aWR0aD0iMTUwIiBzdHlsZT0ic3Ryb2tlOiNBODAwMzY7c3Ryb2tlLXdpZHRoOjEuMDsiIGlkPSJPYmplY3RDYXJkVHlwZSIgaGVpZ2h0PSIxNDUuNzgxMyIgZmlsdGVyPSJ1cmwoI2Z6NDJtcnc1anB5aWgpIiBmaWxsPSIjRkVGRUNFIi8+PGVsbGlwc2Ugc3R5bGU9InN0cm9rZTojQTgwMDM2O3N0cm9rZS13aWR0aDoxLjA7IiByeT0iMTEiIHJ4PSIxMSIgZmlsbD0iI0VCOTM3RiIgY3k9IjQwMCIgY3g9IjE2NTAiLz48cGF0aCBmaWxsPSIjMDAwMDAwIiBkPSJNMTY0OC43OTY5LDQwMC44NzUgTDE2NTAuMjUsNDAwLjg3NSBMMTY1MC4yNSw0MDAuOTg0NCBDMTY1MC4yNSw0MDEuMzkwNiAxNjUwLjI4MTMsNDAxLjU0NjkgMTY1MC4zNTk0LDQwMS43MDMxIEMxNjUwLjUxNTYsNDAxLjk1MzEgMTY1MC43OTY5LDQwMi4xMDk0IDE2NTEuMDkzOCw0MDIuMTA5NCBDMTY1MS4zNDM4LDQwMi4xMDk0IDE2NTEuNjA5NCw0MDEuOTY4OCAxNjUxLjc2NTYsNDAxLjc1IEMxNjUxLjg5MDYsNDAxLjU5MzggMTY1MS45MjE5LDQwMS40Mzc1IDE2NTEuOTIxOSw0MDAuOTg0NCBMMTY1MS45MjE5LDM5OS4wNjI1IEMxNjUxLjkyMTksMzk4LjkwNjMgMTY1MS45MjE5LDM5OC44NTk0IDE2NTEuOTA2MywzOTguNzAzMSBDMTY1MS44NDM4LDM5OC4yMzQ0IDE2NTEuNTMxMywzOTcuOTIxOSAxNjUxLjA3ODEsMzk3LjkyMTkgQzE2NTAuODI4MSwzOTcuOTIxOSAxNjUwLjU2MjUsMzk4LjA2MjUgMTY1MC4zOTA2LDM5OC4yODEzIEMxNjUwLjI4MTMsMzk4LjQ1MzEgMTY1MC4yNSwzOTguNjA5NCAxNjUwLjI1LDM5OS4wNjI1IEwxNjUwLjI1LDM5OS4xODc1IEwxNjQ4Ljc5NjksMzk5LjE4NzUgTDE2NDguNzk2OSwzOTYuNzgxMyBMMTY1Mi43ODEzLDM5Ni43ODEzIEwxNjUyLjc4MTMsMzk3LjY0MDYgQzE2NTIuNzgxMywzOTguMDQ2OSAxNjUyLjgxMjUsMzk4LjIxODggMTY1Mi44OTA2LDM5OC4zNzUgQzE2NTMuMDYyNSwzOTguNjI1IDE2NTMuMzQzOCwzOTguNzgxMyAxNjUzLjYyNSwzOTguNzgxMyBDMTY1My44OTA2LDM5OC43ODEzIDE2NTQuMTU2MywzOTguNjQwNiAxNjU0LjMyODEsMzk4LjQyMTkgQzE2NTQuNDM3NSwzOTguMjUgMTY1NC40Njg4LDM5OC4xMDk0IDE2NTQuNDY4OCwzOTcuNjQwNiBMMTY1NC40Njg4LDM5NS4wOTM4IEwxNjQ2Ljg0MzgsMzk1LjA5MzggQzE2NDYuNDA2MywzOTUuMDkzOCAxNjQ2LjI4MTMsMzk1LjEwOTQgMTY0Ni4xMjUsMzk1LjIwMzEgQzE2NDUuODc1LDM5NS4zNTk0IDE2NDUuNzE4OCwzOTUuNjU2MyAxNjQ1LjcxODgsMzk1LjkzNzUgQzE2NDUuNzE4OCwzOTYuMjE4OCAxNjQ1Ljg1OTQsMzk2LjQ2ODggMTY0Ni4wNzgxLDM5Ni42NDA2IEMxNjQ2LjIzNDQsMzk2Ljc1IDE2NDYuNDIxOSwzOTYuNzgxMyAxNjQ2Ljg0MzgsMzk2Ljc4MTMgTDE2NDcuMDkzOCwzOTYuNzgxMyBMMTY0Ny4wOTM4LDQwMy4yOTY5IEwxNjQ2Ljg0MzgsNDAzLjI5NjkgQzE2NDYuNDM3NSw0MDMuMjk2OSAxNjQ2LjI4MTMsNDAzLjMxMjUgMTY0Ni4xMjUsNDAzLjQyMTkgQzE2NDUuODc1LDQwMy41OTM4IDE2NDUuNzE4OCw0MDMuODU5NCAxNjQ1LjcxODgsNDA0LjE1NjMgQzE2NDUuNzE4OCw0MDQuNDIxOSAxNjQ1Ljg1OTQsNDA0LjY3MTkgMTY0Ni4wNzgxLDQwNC44MjgxIEMxNjQ2LjIxODgsNDA0Ljk1MzEgMTY0Ni40NTMxLDQwNSAxNjQ2Ljg0MzgsNDA1IEwxNjU0Ljg0MzgsNDA1IEwxNjU0Ljg0MzgsNDAyLjQyMTkgQzE2NTQuODQzOCw0MDEuOTg0NCAxNjU0LjgxMjUsNDAxLjg0MzggMTY1NC43MzQ0LDQwMS42ODc1IEMxNjU0LjU2MjUsNDAxLjQzNzUgMTY1NC4yODEzLDQwMS4yODEzIDE2NTQsNDAxLjI4MTMgQzE2NTMuNzM0NCw0MDEuMjgxMyAxNjUzLjQ2ODgsNDAxLjM5MDYgMTY1My4yOTY5LDQwMS42NDA2IEMxNjUzLjE4NzUsNDAxLjc5NjkgMTY1My4xNTYzLDQwMS45Mzc1IDE2NTMuMTU2Myw0MDIuNDIxOSBMMTY1My4xNTYzLDQwMy4yOTY5IEwxNjQ4Ljc5NjksNDAzLjI5NjkgTDE2NDguNzk2OSw0MDAuODc1IFoiLz48dGV4dCB5PSI0MDQuODQ2NyIgeD0iMTY2NCIgdGV4dExlbmd0aD0iMTE4IiBsZW5ndGhBZGp1c3Q9InNwYWNpbmciIGZvbnQtc2l6ZT0iMTQiIGZvbnQtZmFtaWx5PSJzYW5zLXNlcmlmIiBmaWxsPSIjMDAwMDAwIj5PYmplY3RDYXJkVHlwZTwvdGV4dD48bGluZSB5Mj0iNDE2IiB5MT0iNDE2IiB4Mj0iMTc4NCIgeDE9IjE2MzYiIHN0eWxlPSJzdHJva2U6I0E4MDAzNjtzdHJva2Utd2lkdGg6MS4wOyIvPjxlbGxpcHNlIHN0eWxlPSJzdHJva2U6IzAzODA0ODtzdHJva2Utd2lkdGg6MS4wOyIgcnk9IjMiIHJ4PSIzIiBmaWxsPSJub25lIiBjeT0iNDI5LjY0ODQiIGN4PSIxNjQ2Ii8+PHRleHQgeT0iNDMyLjk5NTEiIHg9IjE2NTUiIHRleHRMZW5ndGg9IjM4IiBsZW5ndGhBZGp1c3Q9InNwYWNpbmciIGZvbnQtc2l6ZT0iMTQiIGZvbnQtZmFtaWx5PSJzYW5zLXNlcmlmIiBmaWxsPSIjMDAwMDAwIj5DQVRTPC90ZXh0PjxlbGxpcHNlIHN0eWxlPSJzdHJva2U6IzAzODA0ODtzdHJva2Utd2lkdGg6MS4wOyIgcnk9IjMiIHJ4PSIzIiBmaWxsPSJub25lIiBjeT0iNDQ1Ljk0NTMiIGN4PSIxNjQ2Ii8+PHRleHQgeT0iNDQ5LjI5MiIgeD0iMTY1NSIgdGV4dExlbmd0aD0iNTEiIGxlbmd0aEFkanVzdD0ic3BhY2luZyIgZm9udC1zaXplPSIxNCIgZm9udC1mYW1pbHk9InNhbnMtc2VyaWYiIGZpbGw9IiMwMDAwMDAiPkJPT0tTPC90ZXh0PjxlbGxpcHNlIHN0eWxlPSJzdHJva2U6IzAzODA0ODtzdHJva2Utd2lkdGg6MS4wOyIgcnk9IjMiIHJ4PSIzIiBmaWxsPSJub25lIiBjeT0iNDYyLjI0MjIiIGN4PSIxNjQ2Ii8+PHRleHQgeT0iNDY1LjU4ODkiIHg9IjE2NTUiIHRleHRMZW5ndGg9IjUxIiBsZW5ndGhBZGp1c3Q9InNwYWNpbmciIGZvbnQtc2l6ZT0iMTQiIGZvbnQtZmFtaWx5PSJzYW5zLXNlcmlmIiBmaWxsPSIjMDAwMDAwIj5HQU1FUzwvdGV4dD48ZWxsaXBzZSBzdHlsZT0ic3Ryb2tlOiMwMzgwNDg7c3Ryb2tlLXdpZHRoOjEuMDsiIHJ5PSIzIiByeD0iMyIgZmlsbD0ibm9uZSIgY3k9IjQ3OC41MzkxIiBjeD0iMTY0NiIvPjx0ZXh0IHk9IjQ4MS44ODU3IiB4PSIxNjU1IiB0ZXh0TGVuZ3RoPSI1OCIgbGVuZ3RoQWRqdXN0PSJzcGFjaW5nIiBmb250LXNpemU9IjE0IiBmb250LWZhbWlseT0ic2Fucy1zZXJpZiIgZmlsbD0iIzAwMDAwMCI+RlJBTUVTPC90ZXh0PjxlbGxpcHNlIHN0eWxlPSJzdHJva2U6IzAzODA0ODtzdHJva2Utd2lkdGg6MS4wOyIgcnk9IjMiIHJ4PSIzIiBmaWxsPSJub25lIiBjeT0iNDk0LjgzNTkiIGN4PSIxNjQ2Ii8+PHRleHQgeT0iNDk4LjE4MjYiIHg9IjE2NTUiIHRleHRMZW5ndGg9IjcxIiBsZW5ndGhBZGp1c3Q9InNwYWNpbmciIGZvbnQtc2l6ZT0iMTQiIGZvbnQtZmFtaWx5PSJzYW5zLXNlcmlmIiBmaWxsPSIjMDAwMDAwIj5UUk9QSElFUzwvdGV4dD48ZWxsaXBzZSBzdHlsZT0ic3Ryb2tlOiMwMzgwNDg7c3Ryb2tlLXdpZHRoOjEuMDsiIHJ5PSIzIiByeD0iMyIgZmlsbD0ibm9uZSIgY3k9IjUxMS4xMzI4IiBjeD0iMTY0NiIvPjx0ZXh0IHk9IjUxNC40Nzk1IiB4PSIxNjU1IiB0ZXh0TGVuZ3RoPSI1NSIgbGVuZ3RoQWRqdXN0PSJzcGFjaW5nIiBmb250LXNpemU9IjE0IiBmb250LWZhbWlseT0ic2Fucy1zZXJpZiIgZmlsbD0iIzAwMDAwMCI+UExBTlRTPC90ZXh0PjxsaW5lIHkyPSI1MjEuNzgxMyIgeTE9IjUyMS43ODEzIiB4Mj0iMTc4NCIgeDE9IjE2MzYiIHN0eWxlPSJzdHJva2U6I0E4MDAzNjtzdHJva2Utd2lkdGg6MS4wOyIvPjwvZz48ZyBpZD0iZWxlbV9QbGF5ZXIiPjxyZWN0IHk9IjU5MCIgeD0iMTUwMyIgd2lkdGg9Ijc2IiBzdHlsZT0ic3Ryb2tlOiNBODAwMzY7c3Ryb2tlLXdpZHRoOjEuMDsiIGlkPSJQbGF5ZXIiIGhlaWdodD0iNDgiIGZpbHRlcj0idXJsKCNmejQybXJ3NWpweWloKSIgZmlsbD0iI0ZFRkVDRSIvPjxlbGxpcHNlIHN0eWxlPSJzdHJva2U6I0E4MDAzNjtzdHJva2Utd2lkdGg6MS4wOyIgcnk9IjExIiByeD0iMTEiIGZpbGw9IiNBREQxQjIiIGN5PSI2MDYiIGN4PSIxNTE4Ii8+PHBhdGggZmlsbD0iIzAwMDAwMCIgZD0iTTE1MjAuMzQzOCw2MDEuNjcxOSBDMTUxOS40MDYzLDYwMS4yMzQ0IDE1MTguODEyNSw2MDEuMDkzOCAxNTE3LjkzNzUsNjAxLjA5MzggQzE1MTUuMzEyNSw2MDEuMDkzOCAxNTEzLjMxMjUsNjAzLjE3MTkgMTUxMy4zMTI1LDYwNS44OTA2IEwxNTEzLjMxMjUsNjA3LjAxNTYgQzE1MTMuMzEyNSw2MDkuNTkzOCAxNTE1LjQyMTksNjExLjQ4NDQgMTUxOC4zMTI1LDYxMS40ODQ0IEMxNTE5LjUzMTMsNjExLjQ4NDQgMTUyMC42ODc1LDYxMS4xODc1IDE1MjEuNDM3NSw2MTAuNjQwNiBDMTUyMi4wMTU2LDYxMC4yMzQ0IDE1MjIuMzQzOCw2MDkuNzgxMyAxNTIyLjM0MzgsNjA5LjM5MDYgQzE1MjIuMzQzOCw2MDguOTM3NSAxNTIxLjk1MzEsNjA4LjU0NjkgMTUyMS40ODQ0LDYwOC41NDY5IEMxNTIxLjI2NTYsNjA4LjU0NjkgMTUyMS4wNjI1LDYwOC42MjUgMTUyMC44NzUsNjA4LjgxMjUgQzE1MjAuNDIxOSw2MDkuMjk2OSAxNTIwLjQyMTksNjA5LjI5NjkgMTUyMC4yMzQ0LDYwOS4zOTA2IEMxNTE5LjgxMjUsNjA5LjY1NjMgMTUxOS4xMjUsNjA5Ljc4MTMgMTUxOC4zNTk0LDYwOS43ODEzIEMxNTE2LjMxMjUsNjA5Ljc4MTMgMTUxNS4wMTU2LDYwOC42ODc1IDE1MTUuMDE1Niw2MDYuOTg0NCBMMTUxNS4wMTU2LDYwNS44OTA2IEMxNTE1LjAxNTYsNjA0LjEwOTQgMTUxNi4yNjU2LDYwMi43OTY5IDE1MTgsNjAyLjc5NjkgQzE1MTguNTc4MSw2MDIuNzk2OSAxNTE5LjE4NzUsNjAyLjk1MzEgMTUxOS42NTYzLDYwMy4yMDMxIEMxNTIwLjE0MDYsNjAzLjQ4NDQgMTUyMC4zMTI1LDYwMy43MDMxIDE1MjAuNDA2Myw2MDQuMTA5NCBDMTUyMC40Njg4LDYwNC41MTU2IDE1MjAuNSw2MDQuNjQwNiAxNTIwLjY0MDYsNjA0Ljc2NTYgQzE1MjAuNzgxMyw2MDQuOTA2MyAxNTIxLjAxNTYsNjA1LjAxNTYgMTUyMS4yMzQ0LDYwNS4wMTU2IEMxNTIxLjUsNjA1LjAxNTYgMTUyMS43NjU2LDYwNC44NzUgMTUyMS45Mzc1LDYwNC42NTYzIEMxNTIyLjA0NjksNjA0LjUgMTUyMi4wNzgxLDYwNC4zMTI1IDE1MjIuMDc4MSw2MDMuODkwNiBMMTUyMi4wNzgxLDYwMi40Njg4IEMxNTIyLjA3ODEsNjAyLjAzMTMgMTUyMi4wNjI1LDYwMS45MDYzIDE1MjEuOTY4OCw2MDEuNzUgQzE1MjEuODEyNSw2MDEuNDg0NCAxNTIxLjUzMTMsNjAxLjM0MzggMTUyMS4yMzQ0LDYwMS4zNDM4IEMxNTIwLjkzNzUsNjAxLjM0MzggMTUyMC43MzQ0LDYwMS40Mzc1IDE1MjAuNTE1Niw2MDEuNzUgTDE1MjAuMzQzOCw2MDEuNjcxOSBaIi8+PHRleHQgeT0iNjEwLjg0NjciIHg9IjE1MzIiIHRleHRMZW5ndGg9IjQ0IiBsZW5ndGhBZGp1c3Q9InNwYWNpbmciIGZvbnQtc2l6ZT0iMTQiIGZvbnQtZmFtaWx5PSJzYW5zLXNlcmlmIiBmaWxsPSIjMDAwMDAwIj5QbGF5ZXI8L3RleHQ+PGxpbmUgeTI9IjYyMiIgeTE9IjYyMiIgeDI9IjE1NzgiIHgxPSIxNTA0IiBzdHlsZT0ic3Ryb2tlOiNBODAwMzY7c3Ryb2tlLXdpZHRoOjEuMDsiLz48bGluZSB5Mj0iNjMwIiB5MT0iNjMwIiB4Mj0iMTU3OCIgeDE9IjE1MDQiIHN0eWxlPSJzdHJva2U6I0E4MDAzNjtzdHJva2Utd2lkdGg6MS4wOyIvPjwvZz48ZyBpZD0iZWxlbV9HYW1lIj48cmVjdCB5PSI1OTAiIHg9IjE2MTQiIHdpZHRoPSI3NCIgc3R5bGU9InN0cm9rZTojQTgwMDM2O3N0cm9rZS13aWR0aDoxLjA7IiBpZD0iR2FtZSIgaGVpZ2h0PSI0OCIgZmlsdGVyPSJ1cmwoI2Z6NDJtcnc1anB5aWgpIiBmaWxsPSIjRkVGRUNFIi8+PGVsbGlwc2Ugc3R5bGU9InN0cm9rZTojQTgwMDM2O3N0cm9rZS13aWR0aDoxLjA7IiByeT0iMTEiIHJ4PSIxMSIgZmlsbD0iI0FERDFCMiIgY3k9IjYwNiIgY3g9IjE2MjkiLz48cGF0aCBmaWxsPSIjMDAwMDAwIiBkPSJNMTYzMS4zNDM4LDYwMS42NzE5IEMxNjMwLjQwNjMsNjAxLjIzNDQgMTYyOS44MTI1LDYwMS4wOTM4IDE2MjguOTM3NSw2MDEuMDkzOCBDMTYyNi4zMTI1LDYwMS4wOTM4IDE2MjQuMzEyNSw2MDMuMTcxOSAxNjI0LjMxMjUsNjA1Ljg5MDYgTDE2MjQuMzEyNSw2MDcuMDE1NiBDMTYyNC4zMTI1LDYwOS41OTM4IDE2MjYuNDIxOSw2MTEuNDg0NCAxNjI5LjMxMjUsNjExLjQ4NDQgQzE2MzAuNTMxMyw2MTEuNDg0NCAxNjMxLjY4NzUsNjExLjE4NzUgMTYzMi40Mzc1LDYxMC42NDA2IEMxNjMzLjAxNTYsNjEwLjIzNDQgMTYzMy4zNDM4LDYwOS43ODEzIDE2MzMuMzQzOCw2MDkuMzkwNiBDMTYzMy4zNDM4LDYwOC45Mzc1IDE2MzIuOTUzMSw2MDguNTQ2OSAxNjMyLjQ4NDQsNjA4LjU0NjkgQzE2MzIuMjY1Niw2MDguNTQ2OSAxNjMyLjA2MjUsNjA4LjYyNSAxNjMxLjg3NSw2MDguODEyNSBDMTYzMS40MjE5LDYwOS4yOTY5IDE2MzEuNDIxOSw2MDkuMjk2OSAxNjMxLjIzNDQsNjA5LjM5MDYgQzE2MzAuODEyNSw2MDkuNjU2MyAxNjMwLjEyNSw2MDkuNzgxMyAxNjI5LjM1OTQsNjA5Ljc4MTMgQzE2MjcuMzEyNSw2MDkuNzgxMyAxNjI2LjAxNTYsNjA4LjY4NzUgMTYyNi4wMTU2LDYwNi45ODQ0IEwxNjI2LjAxNTYsNjA1Ljg5MDYgQzE2MjYuMDE1Niw2MDQuMTA5NCAxNjI3LjI2NTYsNjAyLjc5NjkgMTYyOSw2MDIuNzk2OSBDMTYyOS41NzgxLDYwMi43OTY5IDE2MzAuMTg3NSw2MDIuOTUzMSAxNjMwLjY1NjMsNjAzLjIwMzEgQzE2MzEuMTQwNiw2MDMuNDg0NCAxNjMxLjMxMjUsNjAzLjcwMzEgMTYzMS40MDYzLDYwNC4xMDk0IEMxNjMxLjQ2ODgsNjA0LjUxNTYgMTYzMS41LDYwNC42NDA2IDE2MzEuNjQwNiw2MDQuNzY1NiBDMTYzMS43ODEzLDYwNC45MDYzIDE2MzIuMDE1Niw2MDUuMDE1NiAxNjMyLjIzNDQsNjA1LjAxNTYgQzE2MzIuNSw2MDUuMDE1NiAxNjMyLjc2NTYsNjA0Ljg3NSAxNjMyLjkzNzUsNjA0LjY1NjMgQzE2MzMuMDQ2OSw2MDQuNSAxNjMzLjA3ODEsNjA0LjMxMjUgMTYzMy4wNzgxLDYwMy44OTA2IEwxNjMzLjA3ODEsNjAyLjQ2ODggQzE2MzMuMDc4MSw2MDIuMDMxMyAxNjMzLjA2MjUsNjAxLjkwNjMgMTYzMi45Njg4LDYwMS43NSBDMTYzMi44MTI1LDYwMS40ODQ0IDE2MzIuNTMxMyw2MDEuMzQzOCAxNjMyLjIzNDQsNjAxLjM0MzggQzE2MzEuOTM3NSw2MDEuMzQzOCAxNjMxLjczNDQsNjAxLjQzNzUgMTYzMS41MTU2LDYwMS43NSBMMTYzMS4zNDM4LDYwMS42NzE5IFoiLz48dGV4dCB5PSI2MTAuODQ2NyIgeD0iMTY0MyIgdGV4dExlbmd0aD0iNDIiIGxlbmd0aEFkanVzdD0ic3BhY2luZyIgZm9udC1zaXplPSIxNCIgZm9udC1mYW1pbHk9InNhbnMtc2VyaWYiIGZpbGw9IiMwMDAwMDAiPkdhbWU8L3RleHQ+PGxpbmUgeTI9IjYyMiIgeTE9IjYyMiIgeDI9IjE2ODciIHgxPSIxNjE1IiBzdHlsZT0ic3Ryb2tlOiNBODAwMzY7c3Ryb2tlLXdpZHRoOjEuMDsiLz48bGluZSB5Mj0iNjMwIiB5MT0iNjMwIiB4Mj0iMTY4NyIgeDE9IjE2MTUiIHN0eWxlPSJzdHJva2U6I0E4MDAzNjtzdHJva2Utd2lkdGg6MS4wOyIvPjwvZz48ZyBpZD0iZWxlbV9HYW1lQ29udHJvbGxlciI+PHJlY3QgeT0iNDMzIiB4PSIyMzMuNSIgd2lkdGg9IjE0NyIgc3R5bGU9InN0cm9rZTojQTgwMDM2O3N0cm9rZS13aWR0aDoxLjA7IiBpZD0iR2FtZUNvbnRyb2xsZXIiIGhlaWdodD0iNDgiIGZpbHRlcj0idXJsKCNmejQybXJ3NWpweWloKSIgZmlsbD0iI0ZFRkVDRSIvPjxlbGxpcHNlIHN0eWxlPSJzdHJva2U6I0E4MDAzNjtzdHJva2Utd2lkdGg6MS4wOyIgcnk9IjExIiByeD0iMTEiIGZpbGw9IiNBREQxQjIiIGN5PSI0NDkiIGN4PSIyNDguNSIvPjxwYXRoIGZpbGw9IiMwMDAwMDAiIGQ9Ik0yNTAuODQzOCw0NDQuNjcxOSBDMjQ5LjkwNjMsNDQ0LjIzNDQgMjQ5LjMxMjUsNDQ0LjA5MzggMjQ4LjQzNzUsNDQ0LjA5MzggQzI0NS44MTI1LDQ0NC4wOTM4IDI0My44MTI1LDQ0Ni4xNzE5IDI0My44MTI1LDQ0OC44OTA2IEwyNDMuODEyNSw0NTAuMDE1NiBDMjQzLjgxMjUsNDUyLjU5MzggMjQ1LjkyMTksNDU0LjQ4NDQgMjQ4LjgxMjUsNDU0LjQ4NDQgQzI1MC4wMzEzLDQ1NC40ODQ0IDI1MS4xODc1LDQ1NC4xODc1IDI1MS45Mzc1LDQ1My42NDA2IEMyNTIuNTE1Niw0NTMuMjM0NCAyNTIuODQzOCw0NTIuNzgxMyAyNTIuODQzOCw0NTIuMzkwNiBDMjUyLjg0MzgsNDUxLjkzNzUgMjUyLjQ1MzEsNDUxLjU0NjkgMjUxLjk4NDQsNDUxLjU0NjkgQzI1MS43NjU2LDQ1MS41NDY5IDI1MS41NjI1LDQ1MS42MjUgMjUxLjM3NSw0NTEuODEyNSBDMjUwLjkyMTksNDUyLjI5NjkgMjUwLjkyMTksNDUyLjI5NjkgMjUwLjczNDQsNDUyLjM5MDYgQzI1MC4zMTI1LDQ1Mi42NTYzIDI0OS42MjUsNDUyLjc4MTMgMjQ4Ljg1OTQsNDUyLjc4MTMgQzI0Ni44MTI1LDQ1Mi43ODEzIDI0NS41MTU2LDQ1MS42ODc1IDI0NS41MTU2LDQ0OS45ODQ0IEwyNDUuNTE1Niw0NDguODkwNiBDMjQ1LjUxNTYsNDQ3LjEwOTQgMjQ2Ljc2NTYsNDQ1Ljc5NjkgMjQ4LjUsNDQ1Ljc5NjkgQzI0OS4wNzgxLDQ0NS43OTY5IDI0OS42ODc1LDQ0NS45NTMxIDI1MC4xNTYzLDQ0Ni4yMDMxIEMyNTAuNjQwNiw0NDYuNDg0NCAyNTAuODEyNSw0NDYuNzAzMSAyNTAuOTA2Myw0NDcuMTA5NCBDMjUwLjk2ODgsNDQ3LjUxNTYgMjUxLDQ0Ny42NDA2IDI1MS4xNDA2LDQ0Ny43NjU2IEMyNTEuMjgxMyw0NDcuOTA2MyAyNTEuNTE1Niw0NDguMDE1NiAyNTEuNzM0NCw0NDguMDE1NiBDMjUyLDQ0OC4wMTU2IDI1Mi4yNjU2LDQ0Ny44NzUgMjUyLjQzNzUsNDQ3LjY1NjMgQzI1Mi41NDY5LDQ0Ny41IDI1Mi41NzgxLDQ0Ny4zMTI1IDI1Mi41NzgxLDQ0Ni44OTA2IEwyNTIuNTc4MSw0NDUuNDY4OCBDMjUyLjU3ODEsNDQ1LjAzMTMgMjUyLjU2MjUsNDQ0LjkwNjMgMjUyLjQ2ODgsNDQ0Ljc1IEMyNTIuMzEyNSw0NDQuNDg0NCAyNTIuMDMxMyw0NDQuMzQzOCAyNTEuNzM0NCw0NDQuMzQzOCBDMjUxLjQzNzUsNDQ0LjM0MzggMjUxLjIzNDQsNDQ0LjQzNzUgMjUxLjAxNTYsNDQ0Ljc1IEwyNTAuODQzOCw0NDQuNjcxOSBaIi8+PHRleHQgeT0iNDUzLjg0NjciIHg9IjI2Mi41IiB0ZXh0TGVuZ3RoPSIxMTUiIGxlbmd0aEFkanVzdD0ic3BhY2luZyIgZm9udC1zaXplPSIxNCIgZm9udC1mYW1pbHk9InNhbnMtc2VyaWYiIGZpbGw9IiMwMDAwMDAiPkdhbWVDb250cm9sbGVyPC90ZXh0PjxsaW5lIHkyPSI0NjUiIHkxPSI0NjUiIHgyPSIzNzkuNSIgeDE9IjIzNC41IiBzdHlsZT0ic3Ryb2tlOiNBODAwMzY7c3Ryb2tlLXdpZHRoOjEuMDsiLz48bGluZSB5Mj0iNDczIiB5MT0iNDczIiB4Mj0iMzc5LjUiIHgxPSIyMzQuNSIgc3R5bGU9InN0cm9rZTojQTgwMDM2O3N0cm9rZS13aWR0aDoxLjA7Ii8+PC9nPjxnIGlkPSJlbGVtX01vdmUiPjxyZWN0IHk9IjQzMyIgeD0iMTI4IiB3aWR0aD0iNzAiIHN0eWxlPSJzdHJva2U6I0E4MDAzNjtzdHJva2Utd2lkdGg6MS4wOyIgaWQ9Ik1vdmUiIGhlaWdodD0iNDgiIGZpbHRlcj0idXJsKCNmejQybXJ3NWpweWloKSIgZmlsbD0iI0ZFRkVDRSIvPjxlbGxpcHNlIHN0eWxlPSJzdHJva2U6I0E4MDAzNjtzdHJva2Utd2lkdGg6MS4wOyIgcnk9IjExIiByeD0iMTEiIGZpbGw9IiNBREQxQjIiIGN5PSI0NDkiIGN4PSIxNDMiLz48cGF0aCBmaWxsPSIjMDAwMDAwIiBkPSJNMTQ1LjM0MzgsNDQ0LjY3MTkgQzE0NC40MDYzLDQ0NC4yMzQ0IDE0My44MTI1LDQ0NC4wOTM4IDE0Mi45Mzc1LDQ0NC4wOTM4IEMxNDAuMzEyNSw0NDQuMDkzOCAxMzguMzEyNSw0NDYuMTcxOSAxMzguMzEyNSw0NDguODkwNiBMMTM4LjMxMjUsNDUwLjAxNTYgQzEzOC4zMTI1LDQ1Mi41OTM4IDE0MC40MjE5LDQ1NC40ODQ0IDE0My4zMTI1LDQ1NC40ODQ0IEMxNDQuNTMxMyw0NTQuNDg0NCAxNDUuNjg3NSw0NTQuMTg3NSAxNDYuNDM3NSw0NTMuNjQwNiBDMTQ3LjAxNTYsNDUzLjIzNDQgMTQ3LjM0MzgsNDUyLjc4MTMgMTQ3LjM0MzgsNDUyLjM5MDYgQzE0Ny4zNDM4LDQ1MS45Mzc1IDE0Ni45NTMxLDQ1MS41NDY5IDE0Ni40ODQ0LDQ1MS41NDY5IEMxNDYuMjY1Niw0NTEuNTQ2OSAxNDYuMDYyNSw0NTEuNjI1IDE0NS44NzUsNDUxLjgxMjUgQzE0NS40MjE5LDQ1Mi4yOTY5IDE0NS40MjE5LDQ1Mi4yOTY5IDE0NS4yMzQ0LDQ1Mi4zOTA2IEMxNDQuODEyNSw0NTIuNjU2MyAxNDQuMTI1LDQ1Mi43ODEzIDE0My4zNTk0LDQ1Mi43ODEzIEMxNDEuMzEyNSw0NTIuNzgxMyAxNDAuMDE1Niw0NTEuNjg3NSAxNDAuMDE1Niw0NDkuOTg0NCBMMTQwLjAxNTYsNDQ4Ljg5MDYgQzE0MC4wMTU2LDQ0Ny4xMDk0IDE0MS4yNjU2LDQ0NS43OTY5IDE0Myw0NDUuNzk2OSBDMTQzLjU3ODEsNDQ1Ljc5NjkgMTQ0LjE4NzUsNDQ1Ljk1MzEgMTQ0LjY1NjMsNDQ2LjIwMzEgQzE0NS4xNDA2LDQ0Ni40ODQ0IDE0NS4zMTI1LDQ0Ni43MDMxIDE0NS40MDYzLDQ0Ny4xMDk0IEMxNDUuNDY4OCw0NDcuNTE1NiAxNDUuNSw0NDcuNjQwNiAxNDUuNjQwNiw0NDcuNzY1NiBDMTQ1Ljc4MTMsNDQ3LjkwNjMgMTQ2LjAxNTYsNDQ4LjAxNTYgMTQ2LjIzNDQsNDQ4LjAxNTYgQzE0Ni41LDQ0OC4wMTU2IDE0Ni43NjU2LDQ0Ny44NzUgMTQ2LjkzNzUsNDQ3LjY1NjMgQzE0Ny4wNDY5LDQ0Ny41IDE0Ny4wNzgxLDQ0Ny4zMTI1IDE0Ny4wNzgxLDQ0Ni44OTA2IEwxNDcuMDc4MSw0NDUuNDY4OCBDMTQ3LjA3ODEsNDQ1LjAzMTMgMTQ3LjA2MjUsNDQ0LjkwNjMgMTQ2Ljk2ODgsNDQ0Ljc1IEMxNDYuODEyNSw0NDQuNDg0NCAxNDYuNTMxMyw0NDQuMzQzOCAxNDYuMjM0NCw0NDQuMzQzOCBDMTQ1LjkzNzUsNDQ0LjM0MzggMTQ1LjczNDQsNDQ0LjQzNzUgMTQ1LjUxNTYsNDQ0Ljc1IEwxNDUuMzQzOCw0NDQuNjcxOSBaIi8+PHRleHQgeT0iNDUzLjg0NjciIHg9IjE1NyIgdGV4dExlbmd0aD0iMzgiIGxlbmd0aEFkanVzdD0ic3BhY2luZyIgZm9udC1zaXplPSIxNCIgZm9udC1mYW1pbHk9InNhbnMtc2VyaWYiIGZpbGw9IiMwMDAwMDAiPk1vdmU8L3RleHQ+PGxpbmUgeTI9IjQ2NSIgeTE9IjQ2NSIgeDI9IjE5NyIgeDE9IjEyOSIgc3R5bGU9InN0cm9rZTojQTgwMDM2O3N0cm9rZS13aWR0aDoxLjA7Ii8+PGxpbmUgeTI9IjQ3MyIgeTE9IjQ3MyIgeDI9IjE5NyIgeDE9IjEyOSIgc3R5bGU9InN0cm9rZTojQTgwMDM2O3N0cm9rZS13aWR0aDoxLjA7Ii8+PC9nPjxnIGlkPSJlbGVtX1BlcnNvbmFsR29hbENhcmRJbnRlcmZhY2UiPjxyZWN0IHk9IjE3MCIgeD0iMTI4MyIgd2lkdGg9IjIyNCIgc3R5bGU9InN0cm9rZTojQTgwMDM2O3N0cm9rZS13aWR0aDoxLjA7IiBpZD0iUGVyc29uYWxHb2FsQ2FyZEludGVyZmFjZSIgaGVpZ2h0PSI0OCIgZmlsdGVyPSJ1cmwoI2Z6NDJtcnc1anB5aWgpIiBmaWxsPSIjRkVGRUNFIi8+PGVsbGlwc2Ugc3R5bGU9InN0cm9rZTojQTgwMDM2O3N0cm9rZS13aWR0aDoxLjA7IiByeT0iMTEiIHJ4PSIxMSIgZmlsbD0iI0FERDFCMiIgY3k9IjE4NiIgY3g9IjEyOTgiLz48cGF0aCBmaWxsPSIjMDAwMDAwIiBkPSJNMTMwMC4zNDM4LDE4MS42NzE5IEMxMjk5LjQwNjMsMTgxLjIzNDQgMTI5OC44MTI1LDE4MS4wOTM4IDEyOTcuOTM3NSwxODEuMDkzOCBDMTI5NS4zMTI1LDE4MS4wOTM4IDEyOTMuMzEyNSwxODMuMTcxOSAxMjkzLjMxMjUsMTg1Ljg5MDYgTDEyOTMuMzEyNSwxODcuMDE1NiBDMTI5My4zMTI1LDE4OS41OTM4IDEyOTUuNDIxOSwxOTEuNDg0NCAxMjk4LjMxMjUsMTkxLjQ4NDQgQzEyOTkuNTMxMywxOTEuNDg0NCAxMzAwLjY4NzUsMTkxLjE4NzUgMTMwMS40Mzc1LDE5MC42NDA2IEMxMzAyLjAxNTYsMTkwLjIzNDQgMTMwMi4zNDM4LDE4OS43ODEzIDEzMDIuMzQzOCwxODkuMzkwNiBDMTMwMi4zNDM4LDE4OC45Mzc1IDEzMDEuOTUzMSwxODguNTQ2OSAxMzAxLjQ4NDQsMTg4LjU0NjkgQzEzMDEuMjY1NiwxODguNTQ2OSAxMzAxLjA2MjUsMTg4LjYyNSAxMzAwLjg3NSwxODguODEyNSBDMTMwMC40MjE5LDE4OS4yOTY5IDEzMDAuNDIxOSwxODkuMjk2OSAxMzAwLjIzNDQsMTg5LjM5MDYgQzEyOTkuODEyNSwxODkuNjU2MyAxMjk5LjEyNSwxODkuNzgxMyAxMjk4LjM1OTQsMTg5Ljc4MTMgQzEyOTYuMzEyNSwxODkuNzgxMyAxMjk1LjAxNTYsMTg4LjY4NzUgMTI5NS4wMTU2LDE4Ni45ODQ0IEwxMjk1LjAxNTYsMTg1Ljg5MDYgQzEyOTUuMDE1NiwxODQuMTA5NCAxMjk2LjI2NTYsMTgyLjc5NjkgMTI5OCwxODIuNzk2OSBDMTI5OC41NzgxLDE4Mi43OTY5IDEyOTkuMTg3NSwxODIuOTUzMSAxMjk5LjY1NjMsMTgzLjIwMzEgQzEzMDAuMTQwNiwxODMuNDg0NCAxMzAwLjMxMjUsMTgzLjcwMzEgMTMwMC40MDYzLDE4NC4xMDk0IEMxMzAwLjQ2ODgsMTg0LjUxNTYgMTMwMC41LDE4NC42NDA2IDEzMDAuNjQwNiwxODQuNzY1NiBDMTMwMC43ODEzLDE4NC45MDYzIDEzMDEuMDE1NiwxODUuMDE1NiAxMzAxLjIzNDQsMTg1LjAxNTYgQzEzMDEuNSwxODUuMDE1NiAxMzAxLjc2NTYsMTg0Ljg3NSAxMzAxLjkzNzUsMTg0LjY1NjMgQzEzMDIuMDQ2OSwxODQuNSAxMzAyLjA3ODEsMTg0LjMxMjUgMTMwMi4wNzgxLDE4My44OTA2IEwxMzAyLjA3ODEsMTgyLjQ2ODggQzEzMDIuMDc4MSwxODIuMDMxMyAxMzAyLjA2MjUsMTgxLjkwNjMgMTMwMS45Njg4LDE4MS43NSBDMTMwMS44MTI1LDE4MS40ODQ0IDEzMDEuNTMxMywxODEuMzQzOCAxMzAxLjIzNDQsMTgxLjM0MzggQzEzMDAuOTM3NSwxODEuMzQzOCAxMzAwLjczNDQsMTgxLjQzNzUgMTMwMC41MTU2LDE4MS43NSBMMTMwMC4zNDM4LDE4MS42NzE5IFoiLz48dGV4dCB5PSIxOTAuODQ2NyIgeD0iMTMxMiIgdGV4dExlbmd0aD0iMTkyIiBsZW5ndGhBZGp1c3Q9InNwYWNpbmciIGZvbnQtc2l6ZT0iMTQiIGZvbnQtZmFtaWx5PSJzYW5zLXNlcmlmIiBmaWxsPSIjMDAwMDAwIj5QZXJzb25hbEdvYWxDYXJkSW50ZXJmYWNlPC90ZXh0PjxsaW5lIHkyPSIyMDIiIHkxPSIyMDIiIHgyPSIxNTA2IiB4MT0iMTI4NCIgc3R5bGU9InN0cm9rZTojQTgwMDM2O3N0cm9rZS13aWR0aDoxLjA7Ii8+PGxpbmUgeTI9IjIxMCIgeTE9IjIxMCIgeDI9IjE1MDYiIHgxPSIxMjg0IiBzdHlsZT0ic3Ryb2tlOiNBODAwMzY7c3Ryb2tlLXdpZHRoOjEuMDsiLz48L2c+PGcgaWQ9ImVsZW1fT2JqZWN0Q2FyZEludGVyZmFjZSI+PHJlY3QgeT0iMTcwIiB4PSIyMDYiIHdpZHRoPSIxODAiIHN0eWxlPSJzdHJva2U6I0E4MDAzNjtzdHJva2Utd2lkdGg6MS4wOyIgaWQ9Ik9iamVjdENhcmRJbnRlcmZhY2UiIGhlaWdodD0iNDgiIGZpbHRlcj0idXJsKCNmejQybXJ3NWpweWloKSIgZmlsbD0iI0ZFRkVDRSIvPjxlbGxpcHNlIHN0eWxlPSJzdHJva2U6I0E4MDAzNjtzdHJva2Utd2lkdGg6MS4wOyIgcnk9IjExIiByeD0iMTEiIGZpbGw9IiNBREQxQjIiIGN5PSIxODYiIGN4PSIyMjEiLz48cGF0aCBmaWxsPSIjMDAwMDAwIiBkPSJNMjIzLjM0MzgsMTgxLjY3MTkgQzIyMi40MDYzLDE4MS4yMzQ0IDIyMS44MTI1LDE4MS4wOTM4IDIyMC45Mzc1LDE4MS4wOTM4IEMyMTguMzEyNSwxODEuMDkzOCAyMTYuMzEyNSwxODMuMTcxOSAyMTYuMzEyNSwxODUuODkwNiBMMjE2LjMxMjUsMTg3LjAxNTYgQzIxNi4zMTI1LDE4OS41OTM4IDIxOC40MjE5LDE5MS40ODQ0IDIyMS4zMTI1LDE5MS40ODQ0IEMyMjIuNTMxMywxOTEuNDg0NCAyMjMuNjg3NSwxOTEuMTg3NSAyMjQuNDM3NSwxOTAuNjQwNiBDMjI1LjAxNTYsMTkwLjIzNDQgMjI1LjM0MzgsMTg5Ljc4MTMgMjI1LjM0MzgsMTg5LjM5MDYgQzIyNS4zNDM4LDE4OC45Mzc1IDIyNC45NTMxLDE4OC41NDY5IDIyNC40ODQ0LDE4OC41NDY5IEMyMjQuMjY1NiwxODguNTQ2OSAyMjQuMDYyNSwxODguNjI1IDIyMy44NzUsMTg4LjgxMjUgQzIyMy40MjE5LDE4OS4yOTY5IDIyMy40MjE5LDE4OS4yOTY5IDIyMy4yMzQ0LDE4OS4zOTA2IEMyMjIuODEyNSwxODkuNjU2MyAyMjIuMTI1LDE4OS43ODEzIDIyMS4zNTk0LDE4OS43ODEzIEMyMTkuMzEyNSwxODkuNzgxMyAyMTguMDE1NiwxODguNjg3NSAyMTguMDE1NiwxODYuOTg0NCBMMjE4LjAxNTYsMTg1Ljg5MDYgQzIxOC4wMTU2LDE4NC4xMDk0IDIxOS4yNjU2LDE4Mi43OTY5IDIyMSwxODIuNzk2OSBDMjIxLjU3ODEsMTgyLjc5NjkgMjIyLjE4NzUsMTgyLjk1MzEgMjIyLjY1NjMsMTgzLjIwMzEgQzIyMy4xNDA2LDE4My40ODQ0IDIyMy4zMTI1LDE4My43MDMxIDIyMy40MDYzLDE4NC4xMDk0IEMyMjMuNDY4OCwxODQuNTE1NiAyMjMuNSwxODQuNjQwNiAyMjMuNjQwNiwxODQuNzY1NiBDMjIzLjc4MTMsMTg0LjkwNjMgMjI0LjAxNTYsMTg1LjAxNTYgMjI0LjIzNDQsMTg1LjAxNTYgQzIyNC41LDE4NS4wMTU2IDIyNC43NjU2LDE4NC44NzUgMjI0LjkzNzUsMTg0LjY1NjMgQzIyNS4wNDY5LDE4NC41IDIyNS4wNzgxLDE4NC4zMTI1IDIyNS4wNzgxLDE4My44OTA2IEwyMjUuMDc4MSwxODIuNDY4OCBDMjI1LjA3ODEsMTgyLjAzMTMgMjI1LjA2MjUsMTgxLjkwNjMgMjI0Ljk2ODgsMTgxLjc1IEMyMjQuODEyNSwxODEuNDg0NCAyMjQuNTMxMywxODEuMzQzOCAyMjQuMjM0NCwxODEuMzQzOCBDMjIzLjkzNzUsMTgxLjM0MzggMjIzLjczNDQsMTgxLjQzNzUgMjIzLjUxNTYsMTgxLjc1IEwyMjMuMzQzOCwxODEuNjcxOSBaIi8+PHRleHQgeT0iMTkwLjg0NjciIHg9IjIzNSIgdGV4dExlbmd0aD0iMTQ4IiBsZW5ndGhBZGp1c3Q9InNwYWNpbmciIGZvbnQtc2l6ZT0iMTQiIGZvbnQtZmFtaWx5PSJzYW5zLXNlcmlmIiBmaWxsPSIjMDAwMDAwIj5PYmplY3RDYXJkSW50ZXJmYWNlPC90ZXh0PjxsaW5lIHkyPSIyMDIiIHkxPSIyMDIiIHgyPSIzODUiIHgxPSIyMDciIHN0eWxlPSJzdHJva2U6I0E4MDAzNjtzdHJva2Utd2lkdGg6MS4wOyIvPjxsaW5lIHkyPSIyMTAiIHkxPSIyMTAiIHgyPSIzODUiIHgxPSIyMDciIHN0eWxlPSJzdHJva2U6I0E4MDAzNjtzdHJva2Utd2lkdGg6MS4wOyIvPjwvZz48ZyBpZD0iZWxlbV9TY29yZUNhcmRJbnRlcmZhY2UiPjxyZWN0IHk9IjE3MCIgeD0iMTA3NiIgd2lkdGg9IjE3MiIgc3R5bGU9InN0cm9rZTojQTgwMDM2O3N0cm9rZS13aWR0aDoxLjA7IiBpZD0iU2NvcmVDYXJkSW50ZXJmYWNlIiBoZWlnaHQ9IjQ4IiBmaWx0ZXI9InVybCgjZno0Mm1ydzVqcHlpaCkiIGZpbGw9IiNGRUZFQ0UiLz48ZWxsaXBzZSBzdHlsZT0ic3Ryb2tlOiNBODAwMzY7c3Ryb2tlLXdpZHRoOjEuMDsiIHJ5PSIxMSIgcng9IjExIiBmaWxsPSIjQUREMUIyIiBjeT0iMTg2IiBjeD0iMTA5MSIvPjxwYXRoIGZpbGw9IiMwMDAwMDAiIGQ9Ik0xMDkzLjM0MzgsMTgxLjY3MTkgQzEwOTIuNDA2MywxODEuMjM0NCAxMDkxLjgxMjUsMTgxLjA5MzggMTA5MC45Mzc1LDE4MS4wOTM4IEMxMDg4LjMxMjUsMTgxLjA5MzggMTA4Ni4zMTI1LDE4My4xNzE5IDEwODYuMzEyNSwxODUuODkwNiBMMTA4Ni4zMTI1LDE4Ny4wMTU2IEMxMDg2LjMxMjUsMTg5LjU5MzggMTA4OC40MjE5LDE5MS40ODQ0IDEwOTEuMzEyNSwxOTEuNDg0NCBDMTA5Mi41MzEzLDE5MS40ODQ0IDEwOTMuNjg3NSwxOTEuMTg3NSAxMDk0LjQzNzUsMTkwLjY0MDYgQzEwOTUuMDE1NiwxOTAuMjM0NCAxMDk1LjM0MzgsMTg5Ljc4MTMgMTA5NS4zNDM4LDE4OS4zOTA2IEMxMDk1LjM0MzgsMTg4LjkzNzUgMTA5NC45NTMxLDE4OC41NDY5IDEwOTQuNDg0NCwxODguNTQ2OSBDMTA5NC4yNjU2LDE4OC41NDY5IDEwOTQuMDYyNSwxODguNjI1IDEwOTMuODc1LDE4OC44MTI1IEMxMDkzLjQyMTksMTg5LjI5NjkgMTA5My40MjE5LDE4OS4yOTY5IDEwOTMuMjM0NCwxODkuMzkwNiBDMTA5Mi44MTI1LDE4OS42NTYzIDEwOTIuMTI1LDE4OS43ODEzIDEwOTEuMzU5NCwxODkuNzgxMyBDMTA4OS4zMTI1LDE4OS43ODEzIDEwODguMDE1NiwxODguNjg3NSAxMDg4LjAxNTYsMTg2Ljk4NDQgTDEwODguMDE1NiwxODUuODkwNiBDMTA4OC4wMTU2LDE4NC4xMDk0IDEwODkuMjY1NiwxODIuNzk2OSAxMDkxLDE4Mi43OTY5IEMxMDkxLjU3ODEsMTgyLjc5NjkgMTA5Mi4xODc1LDE4Mi45NTMxIDEwOTIuNjU2MywxODMuMjAzMSBDMTA5My4xNDA2LDE4My40ODQ0IDEwOTMuMzEyNSwxODMuNzAzMSAxMDkzLjQwNjMsMTg0LjEwOTQgQzEwOTMuNDY4OCwxODQuNTE1NiAxMDkzLjUsMTg0LjY0MDYgMTA5My42NDA2LDE4NC43NjU2IEMxMDkzLjc4MTMsMTg0LjkwNjMgMTA5NC4wMTU2LDE4NS4wMTU2IDEwOTQuMjM0NCwxODUuMDE1NiBDMTA5NC41LDE4NS4wMTU2IDEwOTQuNzY1NiwxODQuODc1IDEwOTQuOTM3NSwxODQuNjU2MyBDMTA5NS4wNDY5LDE4NC41IDEwOTUuMDc4MSwxODQuMzEyNSAxMDk1LjA3ODEsMTgzLjg5MDYgTDEwOTUuMDc4MSwxODIuNDY4OCBDMTA5NS4wNzgxLDE4Mi4wMzEzIDEwOTUuMDYyNSwxODEuOTA2MyAxMDk0Ljk2ODgsMTgxLjc1IEMxMDk0LjgxMjUsMTgxLjQ4NDQgMTA5NC41MzEzLDE4MS4zNDM4IDEwOTQuMjM0NCwxODEuMzQzOCBDMTA5My45Mzc1LDE4MS4zNDM4IDEwOTMuNzM0NCwxODEuNDM3NSAxMDkzLjUxNTYsMTgxLjc1IEwxMDkzLjM0MzgsMTgxLjY3MTkgWiIvPjx0ZXh0IHk9IjE5MC44NDY3IiB4PSIxMTA1IiB0ZXh0TGVuZ3RoPSIxNDAiIGxlbmd0aEFkanVzdD0ic3BhY2luZyIgZm9udC1zaXplPSIxNCIgZm9udC1mYW1pbHk9InNhbnMtc2VyaWYiIGZpbGw9IiMwMDAwMDAiPlNjb3JlQ2FyZEludGVyZmFjZTwvdGV4dD48bGluZSB5Mj0iMjAyIiB5MT0iMjAyIiB4Mj0iMTI0NyIgeDE9IjEwNzciIHN0eWxlPSJzdHJva2U6I0E4MDAzNjtzdHJva2Utd2lkdGg6MS4wOyIvPjxsaW5lIHkyPSIyMTAiIHkxPSIyMTAiIHgyPSIxMjQ3IiB4MT0iMTA3NyIgc3R5bGU9InN0cm9rZTojQTgwMDM2O3N0cm9rZS13aWR0aDoxLjA7Ii8+PC9nPjxnIGlkPSJlbGVtX0JvYXJkSW50ZXJmYWNlIj48cmVjdCB5PSIxNzAiIHg9IjkwMSIgd2lkdGg9IjE0MCIgc3R5bGU9InN0cm9rZTojQTgwMDM2O3N0cm9rZS13aWR0aDoxLjA7IiBpZD0iQm9hcmRJbnRlcmZhY2UiIGhlaWdodD0iNDgiIGZpbHRlcj0idXJsKCNmejQybXJ3NWpweWloKSIgZmlsbD0iI0ZFRkVDRSIvPjxlbGxpcHNlIHN0eWxlPSJzdHJva2U6I0E4MDAzNjtzdHJva2Utd2lkdGg6MS4wOyIgcnk9IjExIiByeD0iMTEiIGZpbGw9IiNBREQxQjIiIGN5PSIxODYiIGN4PSI5MTYiLz48cGF0aCBmaWxsPSIjMDAwMDAwIiBkPSJNOTE4LjM0MzgsMTgxLjY3MTkgQzkxNy40MDYzLDE4MS4yMzQ0IDkxNi44MTI1LDE4MS4wOTM4IDkxNS45Mzc1LDE4MS4wOTM4IEM5MTMuMzEyNSwxODEuMDkzOCA5MTEuMzEyNSwxODMuMTcxOSA5MTEuMzEyNSwxODUuODkwNiBMOTExLjMxMjUsMTg3LjAxNTYgQzkxMS4zMTI1LDE4OS41OTM4IDkxMy40MjE5LDE5MS40ODQ0IDkxNi4zMTI1LDE5MS40ODQ0IEM5MTcuNTMxMywxOTEuNDg0NCA5MTguNjg3NSwxOTEuMTg3NSA5MTkuNDM3NSwxOTAuNjQwNiBDOTIwLjAxNTYsMTkwLjIzNDQgOTIwLjM0MzgsMTg5Ljc4MTMgOTIwLjM0MzgsMTg5LjM5MDYgQzkyMC4zNDM4LDE4OC45Mzc1IDkxOS45NTMxLDE4OC41NDY5IDkxOS40ODQ0LDE4OC41NDY5IEM5MTkuMjY1NiwxODguNTQ2OSA5MTkuMDYyNSwxODguNjI1IDkxOC44NzUsMTg4LjgxMjUgQzkxOC40MjE5LDE4OS4yOTY5IDkxOC40MjE5LDE4OS4yOTY5IDkxOC4yMzQ0LDE4OS4zOTA2IEM5MTcuODEyNSwxODkuNjU2MyA5MTcuMTI1LDE4OS43ODEzIDkxNi4zNTk0LDE4OS43ODEzIEM5MTQuMzEyNSwxODkuNzgxMyA5MTMuMDE1NiwxODguNjg3NSA5MTMuMDE1NiwxODYuOTg0NCBMOTEzLjAxNTYsMTg1Ljg5MDYgQzkxMy4wMTU2LDE4NC4xMDk0IDkxNC4yNjU2LDE4Mi43OTY5IDkxNiwxODIuNzk2OSBDOTE2LjU3ODEsMTgyLjc5NjkgOTE3LjE4NzUsMTgyLjk1MzEgOTE3LjY1NjMsMTgzLjIwMzEgQzkxOC4xNDA2LDE4My40ODQ0IDkxOC4zMTI1LDE4My43MDMxIDkxOC40MDYzLDE4NC4xMDk0IEM5MTguNDY4OCwxODQuNTE1NiA5MTguNSwxODQuNjQwNiA5MTguNjQwNiwxODQuNzY1NiBDOTE4Ljc4MTMsMTg0LjkwNjMgOTE5LjAxNTYsMTg1LjAxNTYgOTE5LjIzNDQsMTg1LjAxNTYgQzkxOS41LDE4NS4wMTU2IDkxOS43NjU2LDE4NC44NzUgOTE5LjkzNzUsMTg0LjY1NjMgQzkyMC4wNDY5LDE4NC41IDkyMC4wNzgxLDE4NC4zMTI1IDkyMC4wNzgxLDE4My44OTA2IEw5MjAuMDc4MSwxODIuNDY4OCBDOTIwLjA3ODEsMTgyLjAzMTMgOTIwLjA2MjUsMTgxLjkwNjMgOTE5Ljk2ODgsMTgxLjc1IEM5MTkuODEyNSwxODEuNDg0NCA5MTkuNTMxMywxODEuMzQzOCA5MTkuMjM0NCwxODEuMzQzOCBDOTE4LjkzNzUsMTgxLjM0MzggOTE4LjczNDQsMTgxLjQzNzUgOTE4LjUxNTYsMTgxLjc1IEw5MTguMzQzOCwxODEuNjcxOSBaIi8+PHRleHQgeT0iMTkwLjg0NjciIHg9IjkzMCIgdGV4dExlbmd0aD0iMTA4IiBsZW5ndGhBZGp1c3Q9InNwYWNpbmciIGZvbnQtc2l6ZT0iMTQiIGZvbnQtZmFtaWx5PSJzYW5zLXNlcmlmIiBmaWxsPSIjMDAwMDAwIj5Cb2FyZEludGVyZmFjZTwvdGV4dD48bGluZSB5Mj0iMjAyIiB5MT0iMjAyIiB4Mj0iMTA0MCIgeDE9IjkwMiIgc3R5bGU9InN0cm9rZTojQTgwMDM2O3N0cm9rZS13aWR0aDoxLjA7Ii8+PGxpbmUgeTI9IjIxMCIgeTE9IjIxMCIgeDI9IjEwNDAiIHgxPSI5MDIiIHN0eWxlPSJzdHJva2U6I0E4MDAzNjtzdHJva2Utd2lkdGg6MS4wOyIvPjwvZz48ZyBpZD0iZWxlbV9TY29yZUJvYXJkSW50ZXJmYWNlIj48cmVjdCB5PSIxNzAiIHg9IjY4NC41IiB3aWR0aD0iMTgxIiBzdHlsZT0ic3Ryb2tlOiNBODAwMzY7c3Ryb2tlLXdpZHRoOjEuMDsiIGlkPSJTY29yZUJvYXJkSW50ZXJmYWNlIiBoZWlnaHQ9IjQ4IiBmaWx0ZXI9InVybCgjZno0Mm1ydzVqcHlpaCkiIGZpbGw9IiNGRUZFQ0UiLz48ZWxsaXBzZSBzdHlsZT0ic3Ryb2tlOiNBODAwMzY7c3Ryb2tlLXdpZHRoOjEuMDsiIHJ5PSIxMSIgcng9IjExIiBmaWxsPSIjQUREMUIyIiBjeT0iMTg2IiBjeD0iNjk5LjUiLz48cGF0aCBmaWxsPSIjMDAwMDAwIiBkPSJNNzAxLjg0MzgsMTgxLjY3MTkgQzcwMC45MDYzLDE4MS4yMzQ0IDcwMC4zMTI1LDE4MS4wOTM4IDY5OS40Mzc1LDE4MS4wOTM4IEM2OTYuODEyNSwxODEuMDkzOCA2OTQuODEyNSwxODMuMTcxOSA2OTQuODEyNSwxODUuODkwNiBMNjk0LjgxMjUsMTg3LjAxNTYgQzY5NC44MTI1LDE4OS41OTM4IDY5Ni45MjE5LDE5MS40ODQ0IDY5OS44MTI1LDE5MS40ODQ0IEM3MDEuMDMxMywxOTEuNDg0NCA3MDIuMTg3NSwxOTEuMTg3NSA3MDIuOTM3NSwxOTAuNjQwNiBDNzAzLjUxNTYsMTkwLjIzNDQgNzAzLjg0MzgsMTg5Ljc4MTMgNzAzLjg0MzgsMTg5LjM5MDYgQzcwMy44NDM4LDE4OC45Mzc1IDcwMy40NTMxLDE4OC41NDY5IDcwMi45ODQ0LDE4OC41NDY5IEM3MDIuNzY1NiwxODguNTQ2OSA3MDIuNTYyNSwxODguNjI1IDcwMi4zNzUsMTg4LjgxMjUgQzcwMS45MjE5LDE4OS4yOTY5IDcwMS45MjE5LDE4OS4yOTY5IDcwMS43MzQ0LDE4OS4zOTA2IEM3MDEuMzEyNSwxODkuNjU2MyA3MDAuNjI1LDE4OS43ODEzIDY5OS44NTk0LDE4OS43ODEzIEM2OTcuODEyNSwxODkuNzgxMyA2OTYuNTE1NiwxODguNjg3NSA2OTYuNTE1NiwxODYuOTg0NCBMNjk2LjUxNTYsMTg1Ljg5MDYgQzY5Ni41MTU2LDE4NC4xMDk0IDY5Ny43NjU2LDE4Mi43OTY5IDY5OS41LDE4Mi43OTY5IEM3MDAuMDc4MSwxODIuNzk2OSA3MDAuNjg3NSwxODIuOTUzMSA3MDEuMTU2MywxODMuMjAzMSBDNzAxLjY0MDYsMTgzLjQ4NDQgNzAxLjgxMjUsMTgzLjcwMzEgNzAxLjkwNjMsMTg0LjEwOTQgQzcwMS45Njg4LDE4NC41MTU2IDcwMiwxODQuNjQwNiA3MDIuMTQwNiwxODQuNzY1NiBDNzAyLjI4MTMsMTg0LjkwNjMgNzAyLjUxNTYsMTg1LjAxNTYgNzAyLjczNDQsMTg1LjAxNTYgQzcwMywxODUuMDE1NiA3MDMuMjY1NiwxODQuODc1IDcwMy40Mzc1LDE4NC42NTYzIEM3MDMuNTQ2OSwxODQuNSA3MDMuNTc4MSwxODQuMzEyNSA3MDMuNTc4MSwxODMuODkwNiBMNzAzLjU3ODEsMTgyLjQ2ODggQzcwMy41NzgxLDE4Mi4wMzEzIDcwMy41NjI1LDE4MS45MDYzIDcwMy40Njg4LDE4MS43NSBDNzAzLjMxMjUsMTgxLjQ4NDQgNzAzLjAzMTMsMTgxLjM0MzggNzAyLjczNDQsMTgxLjM0MzggQzcwMi40Mzc1LDE4MS4zNDM4IDcwMi4yMzQ0LDE4MS40Mzc1IDcwMi4wMTU2LDE4MS43NSBMNzAxLjg0MzgsMTgxLjY3MTkgWiIvPjx0ZXh0IHk9IjE5MC44NDY3IiB4PSI3MTMuNSIgdGV4dExlbmd0aD0iMTQ5IiBsZW5ndGhBZGp1c3Q9InNwYWNpbmciIGZvbnQtc2l6ZT0iMTQiIGZvbnQtZmFtaWx5PSJzYW5zLXNlcmlmIiBmaWxsPSIjMDAwMDAwIj5TY29yZUJvYXJkSW50ZXJmYWNlPC90ZXh0PjxsaW5lIHkyPSIyMDIiIHkxPSIyMDIiIHgyPSI4NjQuNSIgeDE9IjY4NS41IiBzdHlsZT0ic3Ryb2tlOiNBODAwMzY7c3Ryb2tlLXdpZHRoOjEuMDsiLz48bGluZSB5Mj0iMjEwIiB5MT0iMjEwIiB4Mj0iODY0LjUiIHgxPSI2ODUuNSIgc3R5bGU9InN0cm9rZTojQTgwMDM2O3N0cm9rZS13aWR0aDoxLjA7Ii8+PC9nPjxnIGlkPSJlbGVtX0NvbW1vbkdvYWxDYXJkSW50ZXJmYWNlIj48cmVjdCB5PSIxNzAiIHg9IjQyMSIgd2lkdGg9IjIyOCIgc3R5bGU9InN0cm9rZTojQTgwMDM2O3N0cm9rZS13aWR0aDoxLjA7IiBpZD0iQ29tbW9uR29hbENhcmRJbnRlcmZhY2UiIGhlaWdodD0iNDgiIGZpbHRlcj0idXJsKCNmejQybXJ3NWpweWloKSIgZmlsbD0iI0ZFRkVDRSIvPjxlbGxpcHNlIHN0eWxlPSJzdHJva2U6I0E4MDAzNjtzdHJva2Utd2lkdGg6MS4wOyIgcnk9IjExIiByeD0iMTEiIGZpbGw9IiNBREQxQjIiIGN5PSIxODYiIGN4PSI0MzYiLz48cGF0aCBmaWxsPSIjMDAwMDAwIiBkPSJNNDM4LjM0MzgsMTgxLjY3MTkgQzQzNy40MDYzLDE4MS4yMzQ0IDQzNi44MTI1LDE4MS4wOTM4IDQzNS45Mzc1LDE4MS4wOTM4IEM0MzMuMzEyNSwxODEuMDkzOCA0MzEuMzEyNSwxODMuMTcxOSA0MzEuMzEyNSwxODUuODkwNiBMNDMxLjMxMjUsMTg3LjAxNTYgQzQzMS4zMTI1LDE4OS41OTM4IDQzMy40MjE5LDE5MS40ODQ0IDQzNi4zMTI1LDE5MS40ODQ0IEM0MzcuNTMxMywxOTEuNDg0NCA0MzguNjg3NSwxOTEuMTg3NSA0MzkuNDM3NSwxOTAuNjQwNiBDNDQwLjAxNTYsMTkwLjIzNDQgNDQwLjM0MzgsMTg5Ljc4MTMgNDQwLjM0MzgsMTg5LjM5MDYgQzQ0MC4zNDM4LDE4OC45Mzc1IDQzOS45NTMxLDE4OC41NDY5IDQzOS40ODQ0LDE4OC41NDY5IEM0MzkuMjY1NiwxODguNTQ2OSA0MzkuMDYyNSwxODguNjI1IDQzOC44NzUsMTg4LjgxMjUgQzQzOC40MjE5LDE4OS4yOTY5IDQzOC40MjE5LDE4OS4yOTY5IDQzOC4yMzQ0LDE4OS4zOTA2IEM0MzcuODEyNSwxODkuNjU2MyA0MzcuMTI1LDE4OS43ODEzIDQzNi4zNTk0LDE4OS43ODEzIEM0MzQuMzEyNSwxODkuNzgxMyA0MzMuMDE1NiwxODguNjg3NSA0MzMuMDE1NiwxODYuOTg0NCBMNDMzLjAxNTYsMTg1Ljg5MDYgQzQzMy4wMTU2LDE4NC4xMDk0IDQzNC4yNjU2LDE4Mi43OTY5IDQzNiwxODIuNzk2OSBDNDM2LjU3ODEsMTgyLjc5NjkgNDM3LjE4NzUsMTgyLjk1MzEgNDM3LjY1NjMsMTgzLjIwMzEgQzQzOC4xNDA2LDE4My40ODQ0IDQzOC4zMTI1LDE4My43MDMxIDQzOC40MDYzLDE4NC4xMDk0IEM0MzguNDY4OCwxODQuNTE1NiA0MzguNSwxODQuNjQwNiA0MzguNjQwNiwxODQuNzY1NiBDNDM4Ljc4MTMsMTg0LjkwNjMgNDM5LjAxNTYsMTg1LjAxNTYgNDM5LjIzNDQsMTg1LjAxNTYgQzQzOS41LDE4NS4wMTU2IDQzOS43NjU2LDE4NC44NzUgNDM5LjkzNzUsMTg0LjY1NjMgQzQ0MC4wNDY5LDE4NC41IDQ0MC4wNzgxLDE4NC4zMTI1IDQ0MC4wNzgxLDE4My44OTA2IEw0NDAuMDc4MSwxODIuNDY4OCBDNDQwLjA3ODEsMTgyLjAzMTMgNDQwLjA2MjUsMTgxLjkwNjMgNDM5Ljk2ODgsMTgxLjc1IEM0MzkuODEyNSwxODEuNDg0NCA0MzkuNTMxMywxODEuMzQzOCA0MzkuMjM0NCwxODEuMzQzOCBDNDM4LjkzNzUsMTgxLjM0MzggNDM4LjczNDQsMTgxLjQzNzUgNDM4LjUxNTYsMTgxLjc1IEw0MzguMzQzOCwxODEuNjcxOSBaIi8+PHRleHQgeT0iMTkwLjg0NjciIHg9IjQ1MCIgdGV4dExlbmd0aD0iMTk2IiBsZW5ndGhBZGp1c3Q9InNwYWNpbmciIGZvbnQtc2l6ZT0iMTQiIGZvbnQtZmFtaWx5PSJzYW5zLXNlcmlmIiBmaWxsPSIjMDAwMDAwIj5Db21tb25Hb2FsQ2FyZEludGVyZmFjZTwvdGV4dD48bGluZSB5Mj0iMjAyIiB5MT0iMjAyIiB4Mj0iNjQ4IiB4MT0iNDIyIiBzdHlsZT0ic3Ryb2tlOiNBODAwMzY7c3Ryb2tlLXdpZHRoOjEuMDsiLz48bGluZSB5Mj0iMjEwIiB5MT0iMjEwIiB4Mj0iNjQ4IiB4MT0iNDIyIiBzdHlsZT0ic3Ryb2tlOiNBODAwMzY7c3Ryb2tlLXdpZHRoOjEuMDsiLz48L2c+PGcgaWQ9ImVsZW1fU2hlbGZJbnRlcmZhY2UiPjxyZWN0IHk9IjE3MCIgeD0iMTU0Mi41IiB3aWR0aD0iMTM1IiBzdHlsZT0ic3Ryb2tlOiNBODAwMzY7c3Ryb2tlLXdpZHRoOjEuMDsiIGlkPSJTaGVsZkludGVyZmFjZSIgaGVpZ2h0PSI0OCIgZmlsdGVyPSJ1cmwoI2Z6NDJtcnc1anB5aWgpIiBmaWxsPSIjRkVGRUNFIi8+PGVsbGlwc2Ugc3R5bGU9InN0cm9rZTojQTgwMDM2O3N0cm9rZS13aWR0aDoxLjA7IiByeT0iMTEiIHJ4PSIxMSIgZmlsbD0iI0FERDFCMiIgY3k9IjE4NiIgY3g9IjE1NTcuNSIvPjxwYXRoIGZpbGw9IiMwMDAwMDAiIGQ9Ik0xNTU5Ljg0MzgsMTgxLjY3MTkgQzE1NTguOTA2MywxODEuMjM0NCAxNTU4LjMxMjUsMTgxLjA5MzggMTU1Ny40Mzc1LDE4MS4wOTM4IEMxNTU0LjgxMjUsMTgxLjA5MzggMTU1Mi44MTI1LDE4My4xNzE5IDE1NTIuODEyNSwxODUuODkwNiBMMTU1Mi44MTI1LDE4Ny4wMTU2IEMxNTUyLjgxMjUsMTg5LjU5MzggMTU1NC45MjE5LDE5MS40ODQ0IDE1NTcuODEyNSwxOTEuNDg0NCBDMTU1OS4wMzEzLDE5MS40ODQ0IDE1NjAuMTg3NSwxOTEuMTg3NSAxNTYwLjkzNzUsMTkwLjY0MDYgQzE1NjEuNTE1NiwxOTAuMjM0NCAxNTYxLjg0MzgsMTg5Ljc4MTMgMTU2MS44NDM4LDE4OS4zOTA2IEMxNTYxLjg0MzgsMTg4LjkzNzUgMTU2MS40NTMxLDE4OC41NDY5IDE1NjAuOTg0NCwxODguNTQ2OSBDMTU2MC43NjU2LDE4OC41NDY5IDE1NjAuNTYyNSwxODguNjI1IDE1NjAuMzc1LDE4OC44MTI1IEMxNTU5LjkyMTksMTg5LjI5NjkgMTU1OS45MjE5LDE4OS4yOTY5IDE1NTkuNzM0NCwxODkuMzkwNiBDMTU1OS4zMTI1LDE4OS42NTYzIDE1NTguNjI1LDE4OS43ODEzIDE1NTcuODU5NCwxODkuNzgxMyBDMTU1NS44MTI1LDE4OS43ODEzIDE1NTQuNTE1NiwxODguNjg3NSAxNTU0LjUxNTYsMTg2Ljk4NDQgTDE1NTQuNTE1NiwxODUuODkwNiBDMTU1NC41MTU2LDE4NC4xMDk0IDE1NTUuNzY1NiwxODIuNzk2OSAxNTU3LjUsMTgyLjc5NjkgQzE1NTguMDc4MSwxODIuNzk2OSAxNTU4LjY4NzUsMTgyLjk1MzEgMTU1OS4xNTYzLDE4My4yMDMxIEMxNTU5LjY0MDYsMTgzLjQ4NDQgMTU1OS44MTI1LDE4My43MDMxIDE1NTkuOTA2MywxODQuMTA5NCBDMTU1OS45Njg4LDE4NC41MTU2IDE1NjAsMTg0LjY0MDYgMTU2MC4xNDA2LDE4NC43NjU2IEMxNTYwLjI4MTMsMTg0LjkwNjMgMTU2MC41MTU2LDE4NS4wMTU2IDE1NjAuNzM0NCwxODUuMDE1NiBDMTU2MSwxODUuMDE1NiAxNTYxLjI2NTYsMTg0Ljg3NSAxNTYxLjQzNzUsMTg0LjY1NjMgQzE1NjEuNTQ2OSwxODQuNSAxNTYxLjU3ODEsMTg0LjMxMjUgMTU2MS41NzgxLDE4My44OTA2IEwxNTYxLjU3ODEsMTgyLjQ2ODggQzE1NjEuNTc4MSwxODIuMDMxMyAxNTYxLjU2MjUsMTgxLjkwNjMgMTU2MS40Njg4LDE4MS43NSBDMTU2MS4zMTI1LDE4MS40ODQ0IDE1NjEuMDMxMywxODEuMzQzOCAxNTYwLjczNDQsMTgxLjM0MzggQzE1NjAuNDM3NSwxODEuMzQzOCAxNTYwLjIzNDQsMTgxLjQzNzUgMTU2MC4wMTU2LDE4MS43NSBMMTU1OS44NDM4LDE4MS42NzE5IFoiLz48dGV4dCB5PSIxOTAuODQ2NyIgeD0iMTU3MS41IiB0ZXh0TGVuZ3RoPSIxMDMiIGxlbmd0aEFkanVzdD0ic3BhY2luZyIgZm9udC1zaXplPSIxNCIgZm9udC1mYW1pbHk9InNhbnMtc2VyaWYiIGZpbGw9IiMwMDAwMDAiPlNoZWxmSW50ZXJmYWNlPC90ZXh0PjxsaW5lIHkyPSIyMDIiIHkxPSIyMDIiIHgyPSIxNjc2LjUiIHgxPSIxNTQzLjUiIHN0eWxlPSJzdHJva2U6I0E4MDAzNjtzdHJva2Utd2lkdGg6MS4wOyIvPjxsaW5lIHkyPSIyMTAiIHkxPSIyMTAiIHgyPSIxNjc2LjUiIHgxPSIxNTQzLjUiIHN0eWxlPSJzdHJva2U6I0E4MDAzNjtzdHJva2Utd2lkdGg6MS4wOyIvPjwvZz48ZyBpZD0iZWxlbV9VbmljYXN0UmVtb3RlT2JqZWN0Ij48cmVjdCB5PSIxNzAiIHg9IjE5ODUuNSIgd2lkdGg9IjE5MSIgc3R5bGU9InN0cm9rZTojQTgwMDM2O3N0cm9rZS13aWR0aDoxLjA7IiBpZD0iVW5pY2FzdFJlbW90ZU9iamVjdCIgaGVpZ2h0PSI0OCIgZmlsdGVyPSJ1cmwoI2Z6NDJtcnc1anB5aWgpIiBmaWxsPSIjRkVGRUNFIi8+PGVsbGlwc2Ugc3R5bGU9InN0cm9rZTojQTgwMDM2O3N0cm9rZS13aWR0aDoxLjA7IiByeT0iMTEiIHJ4PSIxMSIgZmlsbD0iI0FERDFCMiIgY3k9IjE4NiIgY3g9IjIwMDAuNSIvPjxwYXRoIGZpbGw9IiMwMDAwMDAiIGQ9Ik0yMDAyLjg0MzgsMTgxLjY3MTkgQzIwMDEuOTA2MywxODEuMjM0NCAyMDAxLjMxMjUsMTgxLjA5MzggMjAwMC40Mzc1LDE4MS4wOTM4IEMxOTk3LjgxMjUsMTgxLjA5MzggMTk5NS44MTI1LDE4My4xNzE5IDE5OTUuODEyNSwxODUuODkwNiBMMTk5NS44MTI1LDE4Ny4wMTU2IEMxOTk1LjgxMjUsMTg5LjU5MzggMTk5Ny45MjE5LDE5MS40ODQ0IDIwMDAuODEyNSwxOTEuNDg0NCBDMjAwMi4wMzEzLDE5MS40ODQ0IDIwMDMuMTg3NSwxOTEuMTg3NSAyMDAzLjkzNzUsMTkwLjY0MDYgQzIwMDQuNTE1NiwxOTAuMjM0NCAyMDA0Ljg0MzgsMTg5Ljc4MTMgMjAwNC44NDM4LDE4OS4zOTA2IEMyMDA0Ljg0MzgsMTg4LjkzNzUgMjAwNC40NTMxLDE4OC41NDY5IDIwMDMuOTg0NCwxODguNTQ2OSBDMjAwMy43NjU2LDE4OC41NDY5IDIwMDMuNTYyNSwxODguNjI1IDIwMDMuMzc1LDE4OC44MTI1IEMyMDAyLjkyMTksMTg5LjI5NjkgMjAwMi45MjE5LDE4OS4yOTY5IDIwMDIuNzM0NCwxODkuMzkwNiBDMjAwMi4zMTI1LDE4OS42NTYzIDIwMDEuNjI1LDE4OS43ODEzIDIwMDAuODU5NCwxODkuNzgxMyBDMTk5OC44MTI1LDE4OS43ODEzIDE5OTcuNTE1NiwxODguNjg3NSAxOTk3LjUxNTYsMTg2Ljk4NDQgTDE5OTcuNTE1NiwxODUuODkwNiBDMTk5Ny41MTU2LDE4NC4xMDk0IDE5OTguNzY1NiwxODIuNzk2OSAyMDAwLjUsMTgyLjc5NjkgQzIwMDEuMDc4MSwxODIuNzk2OSAyMDAxLjY4NzUsMTgyLjk1MzEgMjAwMi4xNTYzLDE4My4yMDMxIEMyMDAyLjY0MDYsMTgzLjQ4NDQgMjAwMi44MTI1LDE4My43MDMxIDIwMDIuOTA2MywxODQuMTA5NCBDMjAwMi45Njg4LDE4NC41MTU2IDIwMDMsMTg0LjY0MDYgMjAwMy4xNDA2LDE4NC43NjU2IEMyMDAzLjI4MTMsMTg0LjkwNjMgMjAwMy41MTU2LDE4NS4wMTU2IDIwMDMuNzM0NCwxODUuMDE1NiBDMjAwNCwxODUuMDE1NiAyMDA0LjI2NTYsMTg0Ljg3NSAyMDA0LjQzNzUsMTg0LjY1NjMgQzIwMDQuNTQ2OSwxODQuNSAyMDA0LjU3ODEsMTg0LjMxMjUgMjAwNC41NzgxLDE4My44OTA2IEwyMDA0LjU3ODEsMTgyLjQ2ODggQzIwMDQuNTc4MSwxODIuMDMxMyAyMDA0LjU2MjUsMTgxLjkwNjMgMjAwNC40Njg4LDE4MS43NSBDMjAwNC4zMTI1LDE4MS40ODQ0IDIwMDQuMDMxMywxODEuMzQzOCAyMDAzLjczNDQsMTgxLjM0MzggQzIwMDMuNDM3NSwxODEuMzQzOCAyMDAzLjIzNDQsMTgxLjQzNzUgMjAwMy4wMTU2LDE4MS43NSBMMjAwMi44NDM4LDE4MS42NzE5IFoiLz48dGV4dCB5PSIxOTAuODQ2NyIgeD0iMjAxNC41IiB0ZXh0TGVuZ3RoPSIxNTkiIGxlbmd0aEFkanVzdD0ic3BhY2luZyIgZm9udC1zaXplPSIxNCIgZm9udC1mYW1pbHk9InNhbnMtc2VyaWYiIGZpbGw9IiMwMDAwMDAiPlVuaWNhc3RSZW1vdGVPYmplY3Q8L3RleHQ+PGxpbmUgeTI9IjIwMiIgeTE9IjIwMiIgeDI9IjIxNzUuNSIgeDE9IjE5ODYuNSIgc3R5bGU9InN0cm9rZTojQTgwMDM2O3N0cm9rZS13aWR0aDoxLjA7Ii8+PGxpbmUgeTI9IjIxMCIgeTE9IjIxMCIgeDI9IjIxNzUuNSIgeDE9IjE5ODYuNSIgc3R5bGU9InN0cm9rZTojQTgwMDM2O3N0cm9rZS13aWR0aDoxLjA7Ii8+PC9nPjxnIGlkPSJsaW5rX1BlcnNvbmFsR29hbENhcmRJbnRlcmZhY2VfUGVyc29uYWxHb2FsQ2FyZCI+PHBhdGggc3R5bGU9InN0cm9rZTojQTgwMDM2O3N0cm9rZS13aWR0aDoxLjA7c3Ryb2tlLWRhc2hhcnJheTo3LjAsNy4wOyIgaWQ9IlBlcnNvbmFsR29hbENhcmRJbnRlcmZhY2UtYmFja3RvLVBlcnNvbmFsR29hbENhcmQiIGZpbGw9Im5vbmUiIGQ9Ik0xMzc0LjE0LDIzNi4yNTEgQzEzNDYuMDUsMjkxLjc4OCAxMjk3LjAzLDM4OC43MjMgMTI3NC42OSw0MzIuODkiLz48cG9seWdvbiBzdHlsZT0ic3Ryb2tlOiNBODAwMzY7c3Ryb2tlLXdpZHRoOjEuMDsiIHBvaW50cz0iMTM2OC4wMSwyMzIuODUsMTM4My4yOSwyMTguMTYyLDEzODAuNTEsMjM5LjE2OSwxMzY4LjAxLDIzMi44NSIgZmlsbD0ibm9uZSIvPjwvZz48ZyBpZD0ibGlua19VbmljYXN0UmVtb3RlT2JqZWN0X1BlcnNvbmFsR29hbENhcmQiPjxwYXRoIHN0eWxlPSJzdHJva2U6I0E4MDAzNjtzdHJva2Utd2lkdGg6MS4wOyIgaWQ9IlVuaWNhc3RSZW1vdGVPYmplY3QtYmFja3RvLVBlcnNvbmFsR29hbENhcmQiIGZpbGw9Im5vbmUiIGQ9Ik0xOTg4LjI5LDIyMy43NzUgQzE5MTAuNTYsMjQ2LjQzNyAxNzk2LjIsMjc2LjM5NiAxNjk0LDI5MCBDMTY3NS42LDI5Mi40NDkgMTM3Ni4wOSwyODguNzQ0IDEzNjAsMjk4IEMxMzA4LjUzLDMyNy42MTQgMTI4MC44NiwzOTYuNjEgMTI2OS40Myw0MzIuODQiLz48cG9seWdvbiBzdHlsZT0ic3Ryb2tlOiNBODAwMzY7c3Ryb2tlLXdpZHRoOjEuMDsiIHBvaW50cz0iMTk4Ni41NiwyMTYuOTg3LDIwMDcuNzIsMjE4LjAzOCwxOTkwLjUyLDIzMC40MTQsMTk4Ni41NiwyMTYuOTg3IiBmaWxsPSJub25lIi8+PC9nPjxnIGlkPSJsaW5rX09iamVjdENhcmRJbnRlcmZhY2VfT2JqZWN0Q2FyZCI+PHBhdGggc3R5bGU9InN0cm9rZTojQTgwMDM2O3N0cm9rZS13aWR0aDoxLjA7c3Ryb2tlLWRhc2hhcnJheTo3LjAsNy4wOyIgaWQ9Ik9iamVjdENhcmRJbnRlcmZhY2UtYmFja3RvLU9iamVjdENhcmQiIGZpbGw9Im5vbmUiIGQ9Ik0zMzYuMzcsMjMyLjA0OCBDMzU1Ljc4OSwyNTAuODYyIDM3OC43NTMsMjc0LjYzOSAzOTcsMjk4IEM0MzIuMDY5LDM0Mi44OTkgNDY1LjAxNSw0MDEuMjQyIDQ4Mi4wMDgsNDMyLjk3NSIvPjxwb2x5Z29uIHN0eWxlPSJzdHJva2U6I0E4MDAzNjtzdHJva2Utd2lkdGg6MS4wOyIgcG9pbnRzPSIzMzEuMzk0LDIzNi45NzUsMzIxLjcxNSwyMTguMTI2LDM0MS4wMzYsMjI2LjgyNSwzMzEuMzk0LDIzNi45NzUiIGZpbGw9Im5vbmUiLz48L2c+PGcgaWQ9ImxpbmtfU2NvcmVDYXJkSW50ZXJmYWNlX1Njb3JlQ2FyZCI+PHBhdGggc3R5bGU9InN0cm9rZTojQTgwMDM2O3N0cm9rZS13aWR0aDoxLjA7c3Ryb2tlLWRhc2hhcnJheTo3LjAsNy4wOyIgaWQ9IlNjb3JlQ2FyZEludGVyZmFjZS1iYWNrdG8tU2NvcmVDYXJkIiBmaWxsPSJub25lIiBkPSJNMTE1MS4yLDIzNy43MTggQzExMzcuMSwyOTMuNDgxIDExMTIuOTEsMzg5LjEwOSAxMTAxLjg0LDQzMi44OSIvPjxwb2x5Z29uIHN0eWxlPSJzdHJva2U6I0E4MDAzNjtzdHJva2Utd2lkdGg6MS4wOyIgcG9pbnRzPSIxMTQ0LjQ1LDIzNS44MzYsMTE1Ni4xNCwyMTguMTYyLDExNTguMDMsMjM5LjI2OCwxMTQ0LjQ1LDIzNS44MzYiIGZpbGw9Im5vbmUiLz48L2c+PGcgaWQ9ImxpbmtfVW5pY2FzdFJlbW90ZU9iamVjdF9TY29yZUNhcmQiPjxwYXRoIHN0eWxlPSJzdHJva2U6I0E4MDAzNjtzdHJva2Utd2lkdGg6MS4wOyIgaWQ9IlVuaWNhc3RSZW1vdGVPYmplY3QtYmFja3RvLVNjb3JlQ2FyZCIgZmlsbD0ibm9uZSIgZD0iTTE5ODkuMDQsMjIzLjc5OSBDMTkxMS4zMSwyNDYuNjI3IDE3OTYuNTcsMjc2LjgwNSAxNjk0LDI5MCBDMTY3OS40NSwyOTEuODcxIDExNzguMjMsMjg5LjkwNyAxMTY2LDI5OCBDMTExOS45NiwzMjguNDU4IDExMDMuOTQsMzk2Ljc1NiAxMDk4LjU3LDQzMi43NjQiLz48cG9seWdvbiBzdHlsZT0ic3Ryb2tlOiNBODAwMzY7c3Ryb2tlLXdpZHRoOjEuMDsiIHBvaW50cz0iMTk4Ny4yOSwyMTcuMDE1LDIwMDguNDYsMjE4LjAyMSwxOTkxLjI5LDIzMC40MzMsMTk4Ny4yOSwyMTcuMDE1IiBmaWxsPSJub25lIi8+PC9nPjxnIGlkPSJsaW5rX0JvYXJkSW50ZXJmYWNlX0JvYXJkIj48cGF0aCBzdHlsZT0ic3Ryb2tlOiNBODAwMzY7c3Ryb2tlLXdpZHRoOjEuMDtzdHJva2UtZGFzaGFycmF5OjcuMCw3LjA7IiBpZD0iQm9hcmRJbnRlcmZhY2UtYmFja3RvLUJvYXJkIiBmaWxsPSJub25lIiBkPSJNOTcxLDIzOC40NTkgQzk3MSwyOTQuMzI0IDk3MSwzODkuMzAyIDk3MSw0MzIuODkiLz48cG9seWdvbiBzdHlsZT0ic3Ryb2tlOiNBODAwMzY7c3Ryb2tlLXdpZHRoOjEuMDsiIHBvaW50cz0iOTY0LDIzOC4xNjIsOTcxLDIxOC4xNjIsOTc4LDIzOC4xNjIsOTY0LDIzOC4xNjIiIGZpbGw9Im5vbmUiLz48L2c+PGcgaWQ9ImxpbmtfVW5pY2FzdFJlbW90ZU9iamVjdF9Cb2FyZCI+PHBhdGggc3R5bGU9InN0cm9rZTojQTgwMDM2O3N0cm9rZS13aWR0aDoxLjA7IiBpZD0iVW5pY2FzdFJlbW90ZU9iamVjdC1iYWNrdG8tQm9hcmQiIGZpbGw9Im5vbmUiIGQ9Ik0xOTg5LjA1LDIyMy44ODQgQzE5MTEuMzMsMjQ2Ljc2MyAxNzk2LjU5LDI3Ni45NjkgMTY5NCwyOTAgQzE2NzUuNTYsMjkyLjM0MiAxMDQwLjA1LDI4Ny4xIDEwMjUsMjk4IEM5ODEuNzk4LDMyOS4yODIgOTcyLjgwMiwzOTcuMjE5IDk3MS4xNiw0MzIuOTU5Ii8+PHBvbHlnb24gc3R5bGU9InN0cm9rZTojQTgwMDM2O3N0cm9rZS13aWR0aDoxLjA7IiBwb2ludHM9IjE5ODcuMywyMTcuMSwyMDA4LjQ3LDIxOC4wOTIsMTk5MS4zLDIzMC41MTYsMTk4Ny4zLDIxNy4xIiBmaWxsPSJub25lIi8+PC9nPjxnIGlkPSJsaW5rX1Njb3JlQm9hcmRJbnRlcmZhY2VfU2NvcmVib2FyZCI+PHBhdGggc3R5bGU9InN0cm9rZTojQTgwMDM2O3N0cm9rZS13aWR0aDoxLjA7c3Ryb2tlLWRhc2hhcnJheTo3LjAsNy4wOyIgaWQ9IlNjb3JlQm9hcmRJbnRlcmZhY2UtYmFja3RvLVNjb3JlYm9hcmQiIGZpbGw9Im5vbmUiIGQ9Ik03ODUuODAyLDIzNy43MTggQzc5OS45MDMsMjkzLjQ4MSA4MjQuMDg1LDM4OS4xMDkgODM1LjE1Niw0MzIuODkiLz48cG9seWdvbiBzdHlsZT0ic3Ryb2tlOiNBODAwMzY7c3Ryb2tlLXdpZHRoOjEuMDsiIHBvaW50cz0iNzc4Ljk3NCwyMzkuMjY4LDc4MC44NTcsMjE4LjE2Miw3OTIuNTQ3LDIzNS44MzYsNzc4Ljk3NCwyMzkuMjY4IiBmaWxsPSJub25lIi8+PC9nPjxnIGlkPSJsaW5rX1VuaWNhc3RSZW1vdGVPYmplY3RfU2NvcmVib2FyZCI+PHBhdGggc3R5bGU9InN0cm9rZTojQTgwMDM2O3N0cm9rZS13aWR0aDoxLjA7IiBpZD0iVW5pY2FzdFJlbW90ZU9iamVjdC1iYWNrdG8tU2NvcmVib2FyZCIgZmlsbD0ibm9uZSIgZD0iTTE5ODkuNDEsMjIzLjgyMyBDMTkxMS42OSwyNDYuNzQyIDE3OTYuNzYsMjc3LjAzNSAxNjk0LDI5MCBDMTY3Mi41NiwyOTIuNzA1IDkzNC4yMDgsMjg2LjM1NyA5MTYsMjk4IEM4NjguODAzLDMyOC4xODEgODUwLjY4LDM5Ni45MjYgODQ0LjIzOCw0MzIuOTczIi8+PHBvbHlnb24gc3R5bGU9InN0cm9rZTojQTgwMDM2O3N0cm9rZS13aWR0aDoxLjA7IiBwb2ludHM9IjE5ODcuNjYsMjE3LjA0LDIwMDguODMsMjE4LjAyMiwxOTkxLjY3LDIzMC40NTQsMTk4Ny42NiwyMTcuMDQiIGZpbGw9Im5vbmUiLz48L2c+PGcgaWQ9ImxpbmtfQ29tbW9uR29hbENhcmRJbnRlcmZhY2VfQ29tbW9uR29hbENhcmQiPjxwYXRoIHN0eWxlPSJzdHJva2U6I0E4MDAzNjtzdHJva2Utd2lkdGg6MS4wO3N0cm9rZS1kYXNoYXJyYXk6Ny4wLDcuMDsiIGlkPSJDb21tb25Hb2FsQ2FyZEludGVyZmFjZS1iYWNrdG8tQ29tbW9uR29hbENhcmQiIGZpbGw9Im5vbmUiIGQ9Ik01NTUuODYyLDIzNi4yNTEgQzU4My45NSwyOTEuNzg4IDYzMi45NzUsMzg4LjcyMyA2NTUuMzEyLDQzMi44OSIvPjxwb2x5Z29uIHN0eWxlPSJzdHJva2U6I0E4MDAzNjtzdHJva2Utd2lkdGg6MS4wOyIgcG9pbnRzPSI1NDkuNDk0LDIzOS4xNjksNTQ2LjcxNCwyMTguMTYyLDU2MS45ODcsMjMyLjg1LDU0OS40OTQsMjM5LjE2OSIgZmlsbD0ibm9uZSIvPjwvZz48ZyBpZD0ibGlua19VbmljYXN0UmVtb3RlT2JqZWN0X0NvbW1vbkdvYWxDYXJkIj48cGF0aCBzdHlsZT0ic3Ryb2tlOiNBODAwMzY7c3Ryb2tlLXdpZHRoOjEuMDsiIGlkPSJVbmljYXN0UmVtb3RlT2JqZWN0LWJhY2t0by1Db21tb25Hb2FsQ2FyZCIgZmlsbD0ibm9uZSIgZD0iTTE5ODkuNDIsMjIzLjg2NyBDMTkxMS43LDI0Ni44MTMgMTc5Ni43NywyNzcuMTIgMTY5NCwyOTAgQzE2NjguNDIsMjkzLjIwNSA3ODguNSwyODUuNDE5IDc2NiwyOTggQzcxMy44NzIsMzI3LjE0NyA2ODUuNDYsMzk2LjM0OSA2NzMuNjU1LDQzMi43MzEiLz48cG9seWdvbiBzdHlsZT0ic3Ryb2tlOiNBODAwMzY7c3Ryb2tlLXdpZHRoOjEuMDsiIHBvaW50cz0iMTk4Ny42NywyMTcuMDg1LDIwMDguODMsMjE4LjA1OSwxOTkxLjY4LDIzMC40OTcsMTk4Ny42NywyMTcuMDg1IiBmaWxsPSJub25lIi8+PC9nPjxnIGlkPSJsaW5rX1Njb3JlQ2FyZF9FbmRHYW1lQ2FyZCI+PHBhdGggc3R5bGU9InN0cm9rZTojQTgwMDM2O3N0cm9rZS13aWR0aDoxLjA7IiBpZD0iU2NvcmVDYXJkLWJhY2t0by1FbmRHYW1lQ2FyZCIgZmlsbD0ibm9uZSIgZD0iTTEwOTYsNTAxLjI5IEMxMDk2LDUzMC4wMTEgMTA5Niw1NjYuNTczIDEwOTYsNTg5Ljg5Ii8+PHBvbHlnb24gc3R5bGU9InN0cm9rZTojQTgwMDM2O3N0cm9rZS13aWR0aDoxLjA7IiBwb2ludHM9IjEwODksNTAxLjIwNSwxMDk2LDQ4MS4yMDUsMTEwMyw1MDEuMjA1LDEwODksNTAxLjIwNSIgZmlsbD0ibm9uZSIvPjwvZz48ZyBpZD0ibGlua19TaGVsZkludGVyZmFjZV9TaGVsZiI+PHBhdGggc3R5bGU9InN0cm9rZTojQTgwMDM2O3N0cm9rZS13aWR0aDoxLjA7c3Ryb2tlLWRhc2hhcnJheTo3LjAsNy4wOyIgaWQ9IlNoZWxmSW50ZXJmYWNlLWJhY2t0by1TaGVsZiIgZmlsbD0ibm9uZSIgZD0iTTE1ODQuNzYsMjM0LjYwOSBDMTU2OS44NywyNTQuNTY2IDE1NDkuMjEsMjc3LjE5IDE1MjUsMjkwIEMxNTAxLjIyLDMwMi41ODMgMTQ4NS43NSwyODAuODc5IDE0NjUsMjk4IEMxNDI0LjI3LDMzMS42MDQgMTQxNC42OCwzOTcuNTk0IDE0MTIuNTMsNDMyLjcxNiIvPjxwb2x5Z29uIHN0eWxlPSJzdHJva2U6I0E4MDAzNjtzdHJva2Utd2lkdGg6MS4wOyIgcG9pbnRzPSIxNTc5LjEyLDIzMC40NjQsMTU5Ni4zMSwyMTguMDcxLDE1OTAuNiwyMzguNDc4LDE1NzkuMTIsMjMwLjQ2NCIgZmlsbD0ibm9uZSIvPjwvZz48ZyBpZD0ibGlua19VbmljYXN0UmVtb3RlT2JqZWN0X1NoZWxmIj48cGF0aCBzdHlsZT0ic3Ryb2tlOiNBODAwMzY7c3Ryb2tlLXdpZHRoOjEuMDsiIGlkPSJVbmljYXN0UmVtb3RlT2JqZWN0LWJhY2t0by1TaGVsZiIgZmlsbD0ibm9uZSIgZD0iTTE5ODcuNTMsMjIzLjY4OSBDMTkwOS43OSwyNDYuMTUzIDE3OTUuODEsMjc1Ljg3OSAxNjk0LDI5MCBDMTY4MS4zOSwyOTEuNzQ5IDE0NzUuMiwyOTAuMzg3IDE0NjUsMjk4IEMxNDIyLjQ1LDMyOS43NSAxNDEzLjY3LDM5Ny4xNjMgMTQxMi4xMSw0MzIuOCIvPjxwb2x5Z29uIHN0eWxlPSJzdHJva2U6I0E4MDAzNjtzdHJva2Utd2lkdGg6MS4wOyIgcG9pbnRzPSIxOTg1LjgxLDIxNi44OTgsMjAwNi45NywyMTguMDAzLDE5ODkuNzQsMjMwLjMzNSwxOTg1LjgxLDIxNi44OTgiIGZpbGw9Im5vbmUiLz48L2c+PC9nPjwvc3ZnPg==;" vertex="1" parent="1">
          <mxGeometry x="10" y="221" width="1150" height="384.29" as="geometry" />
        </mxCell>
      </root>
    </mxGraphModel>
  </diagram>
</mxfile>
